<svg width="43" height="33" viewBox="0 0 43 33" fill="none" xmlns="http://www.w3.org/2000/svg">
<g style="mix-blend-mode:plus-darker">
<path d="M38.4856 9.79714C37.3272 10.7056 35.9971 11.3953 34.4955 11.8663C32.9938 12.3373 31.4921 12.5729 29.9905 12.5729C28.4888 12.5729 27.0086 12.3461 25.5498 11.8926C24.0911 11.4377 22.7825 10.7392 21.624 9.79714L16.7972 6.01206C16.1537 5.50739 15.4243 5.12854 14.6091 4.87553C13.7939 4.62387 12.9573 4.49804 12.0992 4.49804C11.2411 4.49804 10.4044 4.62387 9.58923 4.87553C8.77404 5.12854 8.04465 5.50739 7.40108 6.01206L4.44065 8.33358C3.92579 8.73732 3.31397 8.93919 2.60518 8.93919C1.89811 8.93919 1.28714 8.73732 0.772287 8.33358C0.257429 7.92983 0 7.45073 0 6.89626C0 6.34044 0.257429 5.86066 0.772287 5.45692L3.73272 3.13541C4.89115 2.22699 6.19975 1.54534 7.65851 1.09046C9.11728 0.636924 10.5975 0.410156 12.0992 0.410156C13.6008 0.410156 15.0707 0.636924 16.5089 1.09046C17.9454 1.54534 19.2428 2.22699 20.4012 3.13541L25.228 6.92048C25.9145 7.4588 26.6653 7.8538 27.4805 8.10546C28.2957 8.35847 29.1324 8.48498 29.9905 8.48498C30.8486 8.48498 31.6964 8.35847 32.5339 8.10546C33.3697 7.8538 34.1308 7.4588 34.8173 6.92048L37.8421 4.5485C38.3569 4.14476 38.9679 3.94289 39.6749 3.94289C40.3837 3.94289 40.9956 4.14476 41.5104 4.5485C42.0253 4.95224 42.2827 5.43135 42.2827 5.98582C42.2827 6.54164 42.0253 7.02142 41.5104 7.42516L38.4856 9.79714ZM38.4856 19.8907C37.3272 20.7991 36.0074 21.4801 34.5264 21.9336C33.047 22.3885 31.5565 22.6159 30.0548 22.6159C28.5532 22.6159 27.0626 22.3885 25.5833 21.9336C24.1022 21.4801 22.7825 20.7991 21.624 19.8907L16.7972 16.1056C16.1537 15.6009 15.4243 15.2221 14.6091 14.9691C13.7939 14.7174 12.9573 14.5916 12.0992 14.5916C11.2411 14.5916 10.4044 14.7174 9.58923 14.9691C8.77404 15.2221 8.04465 15.6009 7.40108 16.1056L4.37629 18.4776C3.90434 18.8477 3.30367 19.0327 2.57429 19.0327C1.84491 19.0327 1.22279 18.8477 0.707929 18.4776C0.235976 18.0738 0 17.586 0 17.014C0 16.442 0.235976 15.971 0.707929 15.6009L3.73272 13.2289C4.89115 12.3205 6.19975 11.6389 7.65851 11.184C9.11728 10.7305 10.5975 10.5037 12.0992 10.5037C13.6008 10.5037 15.0707 10.7305 16.5089 11.184C17.9454 11.6389 19.2428 12.3205 20.4012 13.2289L25.228 17.014C25.9145 17.5523 26.6653 17.9473 27.4805 18.199C28.2957 18.452 29.1324 18.5785 29.9905 18.5785C30.8486 18.5785 31.6964 18.452 32.5339 18.199C33.3697 17.9473 34.1308 17.5523 34.8173 17.014L37.8421 14.642C38.3569 14.2383 38.9679 14.0364 39.6749 14.0364C40.3837 14.0364 40.9956 14.2383 41.5104 14.642C42.0253 15.0458 42.2827 15.5249 42.2827 16.0793C42.2827 16.6352 42.0253 17.1149 41.5104 17.5187L38.4856 19.8907ZM38.4213 29.9842C37.2628 30.8926 35.9542 31.5743 34.4955 32.0291C33.0367 32.4827 31.5565 32.7094 30.0548 32.7094C28.5532 32.7094 27.0626 32.4827 25.5833 32.0291C24.1022 31.5743 22.7825 30.8926 21.624 29.9842L16.7329 26.1991C16.0893 25.6944 15.3599 25.3156 14.5447 25.0626C13.7295 24.8109 12.8929 24.6851 12.0348 24.6851C11.1767 24.6851 10.3401 24.8109 9.52487 25.0626C8.70968 25.3156 7.9803 25.6944 7.33672 26.1991L4.37629 28.5206C3.86143 28.9244 3.24961 29.1262 2.54082 29.1262C1.83375 29.1262 1.22279 28.9244 0.707929 28.5206C0.235976 28.1505 0 27.6795 0 27.1075C0 26.5356 0.235976 26.0645 0.707929 25.6944L3.73272 23.3225C4.89115 22.414 6.19975 21.7324 7.65851 21.2775C9.11728 20.824 10.5975 20.5972 12.0992 20.5972C13.6008 20.5972 15.0707 20.824 16.5089 21.2775C17.9454 21.7324 19.2428 22.414 20.4012 23.3225L25.228 27.1075C25.9145 27.6459 26.6765 28.0409 27.514 28.2925C28.3498 28.5455 29.1967 28.672 30.0548 28.672C30.9129 28.672 31.7496 28.5455 32.5648 28.2925C33.38 28.0409 34.1308 27.6459 34.8173 27.1075L37.8421 24.7356C38.314 24.3655 38.9147 24.1804 39.6441 24.1804C40.3734 24.1804 40.9741 24.3655 41.4461 24.7356C41.9609 25.1393 42.2183 25.6191 42.2183 26.1749C42.2183 26.7294 41.9609 27.2085 41.4461 27.6122L38.4213 29.9842Z" fill="#B67B6A"/>
</g>
</svg>
