<svg width="55" height="55" viewBox="0 0 55 55" fill="none" xmlns="http://www.w3.org/2000/svg">
<g style="mix-blend-mode:plus-darker" clip-path="url(#clip0_285_156)">
<path d="M45.3029 7.1665H20.3863V12.6029L24.4862 15.8873C24.758 16.0912 24.9166 16.4309 24.9166 16.7707V26.4202C24.9166 27.0545 24.4182 27.5528 23.784 27.5528H14.7234C14.0892 27.5528 13.5908 27.0545 13.5908 26.4202V16.7707C13.5908 16.4309 13.7494 16.0912 14.0212 15.8873L18.1211 12.6029V7.1665H9.06055V29.818C9.06055 34.8239 13.1152 38.8785 18.1211 38.8785H31.712C36.718 38.8785 40.7726 34.8239 40.7726 29.818V23.0225H45.3029C47.8172 23.0225 49.8332 20.9839 49.8332 18.4922V11.6968C49.8332 9.18248 47.8172 7.1665 45.3029 7.1665ZM45.3029 18.4922H40.7726V11.6968H45.3029V18.4922Z" fill="#B67B6A"/>
<path d="M45.3029 43.4087H9.06055V47.939H45.3029V43.4087Z" fill="#B67B6A"/>
</g>
<defs>
<clipPath id="clip0_285_156">
<rect width="54.3635" height="54.3635" fill="white" transform="translate(0 0.371094)"/>
</clipPath>
</defs>
</svg>
