<svg width="49" height="49" viewBox="0 0 49 49" fill="none" xmlns="http://www.w3.org/2000/svg">
<g style="mix-blend-mode:plus-darker" clip-path="url(#clip0_285_163)">
<path d="M24.1615 14.1139C17.4969 14.1139 12.0807 19.5301 12.0807 26.1947C12.0807 29.537 13.4499 32.5371 15.6244 34.7318L18.4835 31.8726C17.0137 30.4229 16.1076 28.4296 16.1076 26.1947C16.1076 21.7449 19.7117 18.1408 24.1615 18.1408C28.6112 18.1408 32.2153 21.7449 32.2153 26.1947C32.2153 28.4296 31.3093 30.4229 29.8394 31.8726L32.6986 34.7318C34.8731 32.5371 36.2422 29.537 36.2422 26.1947C36.2422 19.5301 30.826 14.1139 24.1615 14.1139ZM24.1615 6.06006C13.0472 6.06006 4.02686 15.0804 4.02686 26.1947C4.02686 31.7518 6.28193 36.7855 9.9263 40.4299L12.7854 37.5707C9.8659 34.6714 8.05378 30.6444 8.05378 26.1947C8.05378 17.2952 15.262 10.087 24.1615 10.087C29.2555 10.087 33.7858 12.4427 36.7255 16.1274H41.5981C38.1148 10.1071 31.6113 6.06006 24.1615 6.06006ZM24.1615 22.1678C21.9467 22.1678 20.1346 23.9799 20.1346 26.1947C20.1346 27.3021 20.5976 28.3088 21.3225 29.0337C22.0473 29.7585 23.0541 30.2216 24.1615 30.2216C25.2689 30.2216 26.2756 29.7585 27.0005 29.0337C27.7253 28.3088 28.1884 27.3021 28.1884 26.1947C28.1884 23.9799 26.3763 22.1678 24.1615 22.1678ZM40.2692 20.1543H44.2961V32.2351H40.2692V20.1543ZM40.2692 36.262H44.2961V40.2889H40.2692V36.262Z" fill="#B67B6A"/>
</g>
<defs>
<clipPath id="clip0_285_163">
<rect width="48.3231" height="48.3231" fill="white" transform="translate(0 0.0195312)"/>
</clipPath>
</defs>
</svg>
