<svg width="56" height="56" viewBox="0 0 56 56" fill="none" xmlns="http://www.w3.org/2000/svg">
<g clip-path="url(#clip0_285_52)">
<g style="mix-blend-mode:plus-darker">
<path d="M12.4553 30.2648C15.2257 30.2648 15.7611 32.5928 20.2077 32.5928C24.7475 32.5928 25.0734 30.2648 27.9602 30.2648C30.7306 30.2648 31.266 32.5928 35.7126 32.5928C40.2524 32.5928 40.5783 30.2648 43.4651 30.2648C46.2355 30.2648 46.7244 32.5463 51.171 32.5928V27.9367C48.4006 27.9367 47.8651 25.6086 43.4185 25.6086C38.8788 25.6086 38.5529 27.9367 35.6661 27.9367C32.8957 27.9367 32.3602 25.6086 27.9136 25.6086C23.3739 25.6086 23.048 27.9367 20.1612 27.9367C17.3908 27.9367 16.8553 25.6086 12.4087 25.6086C7.86898 25.6086 7.54305 27.9367 4.65625 27.9367V32.5928C9.07957 32.5928 9.70815 30.2648 12.4553 30.2648ZM43.4651 34.9209C38.9254 34.9209 38.5994 37.249 35.7126 37.249C32.9422 37.249 32.4068 34.9209 27.9602 34.9209C23.4205 34.9209 23.0712 37.249 20.1844 37.249C17.2976 37.249 16.9717 34.9209 12.432 34.9209C7.89226 34.9209 7.54305 37.249 4.65625 37.249V41.9051C9.19598 41.9051 9.56847 39.577 12.432 39.577C15.3188 39.577 15.6447 41.9051 20.1844 41.9051C24.7242 41.9051 25.0734 39.577 27.9602 39.577C30.7306 39.577 31.266 41.9051 35.7126 41.9051C40.2291 41.9051 40.5783 39.577 43.4651 39.577C46.2355 39.577 46.771 41.9051 51.2176 41.9051V37.249C48.3308 37.249 48.0048 34.9209 43.4651 34.9209ZM12.4553 20.9525C15.2257 20.9525 15.7611 23.2806 20.2077 23.2806C24.7475 23.2806 25.0734 20.9525 27.9602 20.9525C30.7306 20.9525 31.266 23.2806 35.7126 23.2806C40.2524 23.2806 40.5783 20.9525 43.4651 20.9525C46.2355 20.9525 46.7244 23.234 51.171 23.2806V18.6245C48.4006 18.6245 47.8651 16.2964 43.4185 16.2964C38.8788 16.2964 38.5529 18.6245 35.6661 18.6245C32.8957 18.6245 32.3602 16.2964 27.9136 16.2964C23.3739 16.2964 23.048 18.6245 20.1612 18.6245C17.3908 18.6245 16.8553 16.2964 12.4087 16.2964C7.86898 16.2964 7.54305 18.6245 4.65625 18.6245V23.2806C9.07957 23.2806 9.70815 20.9525 12.4553 20.9525Z" fill="#B67B6A"/>
</g>
</g>
<defs>
<clipPath id="clip0_285_52">
<rect width="55.8736" height="55.8736" fill="white"/>
</clipPath>
</defs>
</svg>
