<svg width="73" height="73" viewBox="0 0 73 73" fill="none" xmlns="http://www.w3.org/2000/svg">
<g style="mix-blend-mode:plus-darker">
<path d="M36.2423 14.6948C24.5045 24.7149 18.6245 33.3697 18.6245 40.6811C18.6245 51.6481 26.993 58.7393 36.2423 58.7393C45.4916 58.7393 53.8601 51.6481 53.8601 40.6811C53.8601 33.3697 47.9802 24.7149 36.2423 14.6948ZM27.059 41.1215C27.8739 41.1215 28.5345 41.6941 28.6887 42.4869C29.5916 47.3758 33.7097 49.0495 36.7048 48.8073C37.6517 48.7632 38.4445 49.512 38.4445 50.4589C38.4445 51.3398 37.7398 52.0666 36.8589 52.1106C32.1682 52.3969 26.6847 49.7102 25.4294 43.0375C25.2532 42.0464 26.046 41.1215 27.059 41.1215Z" fill="#B67B6A"/>
</g>
</svg>
