<svg width="20" height="20" viewBox="0 0 20 20" fill="none" xmlns="http://www.w3.org/2000/svg">
<path fill-rule="evenodd" clip-rule="evenodd" d="M9.68104 0.52637C14.6791 0.522221 18.846 4.69743 18.846 9.68584C18.846 14.6784 14.6791 18.8412 9.68104 18.8384C8.36759 18.8391 7.06927 18.558 5.8737 18.0141L1.33754 18.8342C1.21712 18.8563 1.09302 18.846 0.977892 18.8044C0.862769 18.7628 0.760757 18.6913 0.682278 18.5974C0.6038 18.5034 0.551668 18.3903 0.53121 18.2696C0.510751 18.1489 0.522699 18.025 0.565833 17.9104L1.86583 14.4557C0.990011 13.0182 0.52596 11.3677 0.524344 9.68446C0.525727 4.69605 4.68849 0.529136 9.68104 0.52637ZM14.2794 13.5762C13.2602 14.4004 11.6822 15.233 10.1734 14.2649C8.19573 12.9939 6.44487 11.3247 5.1753 9.34563C4.42988 8.18669 5.13104 6.33073 6.17934 5.19946C6.597 4.74722 7.28573 4.81914 7.74073 5.23403L8.69775 6.10807C8.98817 6.37361 8.99924 6.83552 8.81807 7.1868C8.53179 7.73722 8.36307 8.47712 8.71711 9.02892C9.16243 9.72041 9.71009 10.4022 11.0184 10.7991C11.4139 10.9208 11.9215 10.8683 12.353 10.694C12.7139 10.5474 13.1717 10.5488 13.4386 10.8337L14.3292 11.7811C14.8202 12.3038 14.8368 13.1253 14.2794 13.5762Z" fill="#B67B6A"/>
</svg>
