<svg width="386" height="97" viewBox="0 0 386 97" fill="none" xmlns="http://www.w3.org/2000/svg">
<path d="M130.339 47.1335C130.042 47.1335 129.835 47.0297 129.716 46.822C129.597 46.6144 129.538 46.3919 129.538 46.1546C129.568 45.6504 129.686 45.3686 129.894 45.3092C130.102 45.2499 130.354 45.2202 130.65 45.2202C131.6 45.2202 132.267 45.0571 132.653 44.7308C133.038 44.3749 133.275 43.9448 133.364 43.4405C133.483 42.9066 133.542 42.3578 133.542 41.7942V20.5707H130.472C129.464 20.6004 128.678 20.8228 128.114 21.2381C127.551 21.6237 127.135 22.2466 126.868 23.1068C126.601 23.9374 126.364 25.0201 126.156 26.3549C126.127 26.6218 125.934 26.8295 125.578 26.9778C125.252 27.0964 124.925 27.1558 124.599 27.1558C124.392 27.1558 124.154 27.0816 123.887 26.9333C123.65 26.785 123.531 26.5625 123.531 26.2659L123.665 19.9923C123.665 19.577 123.783 19.2952 124.021 19.1469C124.258 18.9986 124.54 18.9244 124.866 18.9244H146.624C146.95 18.9244 147.217 18.9986 147.425 19.1469C147.662 19.2952 147.78 19.577 147.78 19.9923L147.958 26.2659C147.958 26.5625 147.825 26.785 147.558 26.9333C147.321 27.0816 147.083 27.1558 146.846 27.1558C146.549 27.1558 146.238 27.0964 145.912 26.9778C145.585 26.8295 145.393 26.6218 145.333 26.3549C145.126 25.0201 144.874 23.9374 144.577 23.1068C144.31 22.2466 143.895 21.6237 143.331 21.2381C142.797 20.8228 142.011 20.6004 140.973 20.5707H137.947V41.7942C137.977 42.3578 138.036 42.9066 138.125 43.4405C138.214 43.9448 138.452 44.3749 138.837 44.7308C139.252 45.0571 139.92 45.2202 140.839 45.2202C141.136 45.2202 141.388 45.2499 141.596 45.3092C141.803 45.3686 141.922 45.6504 141.952 46.1546C141.952 46.3919 141.892 46.6144 141.774 46.822C141.655 47.0297 141.448 47.1335 141.151 47.1335C140.202 47.0742 139.297 47.0297 138.437 47C137.606 47 136.761 47 135.901 47C134.121 47 132.267 47.0445 130.339 47.1335ZM150.267 47.1335C150.03 47.1335 149.852 47.0445 149.733 46.8665C149.615 46.6589 149.555 46.4512 149.555 46.2436C149.585 45.7987 149.689 45.5614 149.867 45.5317C150.074 45.4724 150.312 45.4427 150.579 45.4427C151.409 45.4427 151.973 45.3092 152.269 45.0423C152.596 44.7456 152.774 44.36 152.803 43.8854C152.863 43.4108 152.892 42.9214 152.892 42.4171V20.7042C152.892 20.1702 152.863 19.6808 152.803 19.2359C152.774 18.7613 152.611 18.3905 152.314 18.1235C152.017 17.8269 151.454 17.6786 150.623 17.6786C150.356 17.6786 150.104 17.6489 149.867 17.5896C149.659 17.5006 149.555 17.2337 149.555 16.7887C149.555 16.3438 149.793 16.0768 150.267 15.9878C151.632 15.7802 152.67 15.5726 153.382 15.3649C154.123 15.1573 154.687 14.9793 155.073 14.831C155.458 14.653 155.799 14.564 156.096 14.564C156.333 14.564 156.526 14.6234 156.674 14.742C156.852 14.831 156.941 15.0535 156.941 15.4094V29.7364H157.03C157.624 29.1728 158.232 28.6389 158.855 28.1346C159.477 27.6007 160.204 27.1706 161.035 26.8443C161.895 26.4884 162.948 26.3104 164.194 26.3104C166.211 26.3104 167.813 26.9185 168.999 28.1346C170.186 29.3508 170.779 30.9526 170.779 32.94V42.4171C170.779 42.9214 170.794 43.4108 170.823 43.8854C170.883 44.36 171.061 44.7456 171.357 45.0423C171.684 45.3092 172.247 45.4427 173.048 45.4427C173.345 45.4427 173.582 45.4724 173.76 45.5317C173.938 45.5614 174.042 45.7987 174.071 46.2436C174.071 46.4512 174.012 46.6589 173.893 46.8665C173.804 47.0445 173.641 47.1335 173.404 47.1335C172.544 47.0742 171.743 47.0297 171.001 47C170.26 47 169.503 47 168.732 47C167.931 47 167.175 47 166.463 47C165.751 47.0297 164.965 47.0742 164.105 47.1335C163.868 47.1335 163.69 47.0445 163.571 46.8665C163.452 46.6589 163.393 46.4512 163.393 46.2436C163.423 45.7987 163.526 45.5614 163.704 45.5317C163.882 45.4724 164.12 45.4427 164.416 45.4427C165.247 45.4427 165.81 45.3092 166.107 45.0423C166.433 44.7456 166.611 44.36 166.641 43.8854C166.671 43.4108 166.685 42.9214 166.685 42.4171V32.9845C166.685 31.5013 166.241 30.4335 165.351 29.7809C164.461 29.0987 163.497 28.7575 162.459 28.7575C161.45 28.7575 160.56 28.9504 159.789 29.336C159.018 29.6919 158.395 30.1072 157.92 30.5818C157.446 31.0564 157.119 31.4717 156.941 31.8276V42.4171C156.941 42.9214 156.956 43.4108 156.986 43.8854C157.045 44.36 157.223 44.7456 157.52 45.0423C157.846 45.3092 158.41 45.4427 159.21 45.4427C159.507 45.4427 159.744 45.4724 159.922 45.5317C160.1 45.5614 160.204 45.7987 160.234 46.2436C160.234 46.4512 160.175 46.6589 160.056 46.8665C159.967 47.0445 159.804 47.1335 159.566 47.1335C158.706 47.0742 157.905 47.0297 157.164 47C156.422 47 155.666 47 154.895 47C154.094 47 153.337 47 152.625 47C151.914 47.0297 151.127 47.0742 150.267 47.1335ZM186.795 47.5339C184.511 47.5339 182.583 47.0445 181.011 46.0656C179.468 45.0868 178.311 43.7816 177.54 42.1502C176.769 40.5187 176.383 38.739 176.383 36.8109C176.383 35.5058 176.606 34.2451 177.051 33.029C177.525 31.7831 178.193 30.656 179.053 29.6474C179.913 28.6092 180.951 27.7935 182.168 27.2003C183.384 26.607 184.763 26.3104 186.305 26.3104C189.034 26.3104 191.081 27.0223 192.446 28.4461C193.84 29.8402 194.641 31.62 194.848 33.7853C194.848 34.8235 194.552 35.5058 193.958 35.8321C193.395 36.1583 192.653 36.3215 191.734 36.3215H180.922C180.922 38.0419 181.159 39.5844 181.634 40.9488C182.108 42.2837 182.85 43.3515 183.858 44.1524C184.897 44.9236 186.261 45.3092 187.952 45.3092C189.198 45.3092 190.265 45.0423 191.155 44.5083C192.045 43.9744 192.905 43.0401 193.736 41.7052C193.973 41.4086 194.3 41.3938 194.715 41.6607C194.952 41.7794 195.1 41.9722 195.16 42.2392C195.219 42.4765 195.189 42.6841 195.071 42.8621C194.151 44.3155 192.994 45.4575 191.6 46.2881C190.206 47.1187 188.604 47.5339 186.795 47.5339ZM180.922 34.6307H188.174C188.886 34.6307 189.45 34.4972 189.865 34.2303C190.31 33.9337 190.547 33.4442 190.577 32.762C190.577 31.4865 190.221 30.3593 189.509 29.3805C188.827 28.3719 187.759 27.8677 186.305 27.8677C184.822 27.8677 183.577 28.4609 182.568 29.6474C181.589 30.8339 181.04 32.495 180.922 34.6307ZM209.469 47.1335C209.173 47.1335 208.965 47.0297 208.846 46.822C208.728 46.6144 208.668 46.3919 208.668 46.1546C208.698 45.6504 208.817 45.3686 209.024 45.3092C209.232 45.2499 209.484 45.2202 209.781 45.2202C210.73 45.2202 211.397 45.0571 211.783 44.7308C212.169 44.3749 212.406 43.9448 212.495 43.4405C212.614 42.9066 212.673 42.3578 212.673 41.7942V24.1302C212.673 23.5666 212.614 23.0327 212.495 22.5284C212.406 21.9945 212.169 21.5644 211.783 21.2381C211.397 20.8821 210.73 20.7042 209.781 20.7042C209.484 20.7042 209.232 20.6745 209.024 20.6152C208.817 20.5559 208.698 20.2741 208.668 19.7698C208.668 19.5325 208.728 19.31 208.846 19.1024C208.965 18.8948 209.173 18.7909 209.469 18.7909C210.419 18.8206 211.308 18.8503 212.139 18.8799C212.97 18.9096 213.83 18.9244 214.72 18.9244H220.993C222.714 18.9244 224.063 19.0579 225.042 19.3249C226.051 19.5622 226.926 19.9181 227.667 20.3927C228.439 20.897 229.047 21.594 229.492 22.4839C229.936 23.3441 230.159 24.2933 230.159 25.3315C230.159 26.6663 229.848 27.7935 229.225 28.7131C228.602 29.6029 227.816 30.3148 226.866 30.8488C225.947 31.353 225.042 31.709 224.152 31.9166V32.0501C225.724 32.0204 227.119 32.3022 228.335 32.8955C229.551 33.4887 230.515 34.2748 231.227 35.2536C231.939 36.2325 232.309 37.3004 232.339 38.4572C232.398 40.148 232.043 41.5421 231.271 42.6396C230.5 43.7371 229.492 44.6122 228.246 45.2647C227.03 45.9173 225.695 46.3771 224.241 46.644C222.817 46.911 221.438 47.0445 220.103 47.0445L214.764 47C213.874 47 212.999 47 212.139 47C211.308 47.0297 210.419 47.0742 209.469 47.1335ZM217.078 31.1602H218.947C219.54 31.1602 220.207 31.1306 220.949 31.0712C221.69 31.0119 222.402 30.8339 223.084 30.5373C223.767 30.211 224.315 29.6919 224.731 28.98C225.176 28.2385 225.398 27.2003 225.398 25.8655C225.398 24.2933 225.013 23.0179 224.241 22.039C223.5 21.0601 222.15 20.5707 220.192 20.5707H217.078V31.1602ZM220.281 45.2647C221.616 45.2351 222.832 45.0126 223.93 44.5973C225.027 44.1821 225.902 43.485 226.555 42.5061C227.208 41.5273 227.534 40.1776 227.534 38.4572C227.445 37.508 227.119 36.6181 226.555 35.7876C226.021 34.957 225.131 34.2748 223.885 33.7409C222.669 33.2069 221.008 32.94 218.902 32.94H217.078V41.7942C217.078 43.2774 217.3 44.2266 217.745 44.6418C218.19 45.0571 219.036 45.2647 220.281 45.2647ZM235.431 47.1335C235.223 47.1335 235.046 47.0445 234.897 46.8665C234.779 46.6589 234.719 46.4512 234.719 46.2436C234.749 45.7987 234.853 45.5614 235.031 45.5317C235.238 45.4724 235.476 45.4427 235.743 45.4427C236.573 45.4427 237.137 45.3092 237.433 45.0423C237.76 44.7456 237.938 44.36 237.967 43.8854C238.027 43.4108 238.056 42.9214 238.056 42.4171V20.7042C238.056 20.1702 238.027 19.6808 237.967 19.2359C237.938 18.7613 237.774 18.3905 237.478 18.1235C237.181 17.8269 236.618 17.6786 235.787 17.6786C235.52 17.6786 235.268 17.6489 235.031 17.5896C234.823 17.5006 234.719 17.2337 234.719 16.7887C234.719 16.3438 234.957 16.0768 235.431 15.9878C236.796 15.7802 237.834 15.5726 238.546 15.3649C239.287 15.1573 239.851 14.9793 240.236 14.831C240.622 14.6827 240.963 14.5937 241.26 14.564C241.497 14.5344 241.69 14.5789 241.838 14.6975C242.016 14.8162 242.105 15.0535 242.105 15.4094V42.4171C242.105 42.9214 242.12 43.4108 242.15 43.8854C242.209 44.36 242.387 44.7456 242.684 45.0423C243.01 45.3092 243.588 45.4427 244.419 45.4427C244.686 45.4427 244.908 45.4724 245.086 45.5317C245.294 45.5614 245.413 45.7987 245.442 46.2436C245.442 46.4512 245.383 46.6589 245.264 46.8665C245.146 47.0445 244.968 47.1335 244.73 47.1335C243.87 47.0742 243.069 47.0297 242.328 47C241.616 47 240.859 47 240.058 47C239.258 47 238.501 47 237.789 47C237.077 47.0297 236.291 47.0742 235.431 47.1335ZM256.845 47.5339C254.828 47.5339 253.226 46.9258 252.039 45.7097C250.853 44.4935 250.26 42.8917 250.26 40.9044V32.673C250.26 32.1391 250.23 31.6496 250.171 31.2047C250.141 30.7301 249.978 30.3593 249.681 30.0924C249.385 29.7957 248.821 29.6474 247.991 29.6474C247.724 29.6474 247.471 29.6178 247.234 29.5584C247.027 29.4694 246.923 29.2025 246.923 28.7575C246.923 28.3126 247.16 28.0456 247.635 27.9567C248.999 27.749 250.037 27.5414 250.749 27.3337C251.491 27.1261 252.054 26.9481 252.44 26.7998C252.826 26.6515 253.167 26.5625 253.463 26.5329C253.701 26.5032 253.893 26.5477 254.042 26.6663C254.22 26.785 254.309 27.0223 254.309 27.3782V40.8599C254.309 41.8387 254.516 42.6396 254.932 43.2625C255.377 43.8854 255.925 44.3452 256.578 44.6418C257.23 44.9385 257.898 45.0868 258.58 45.0868C259.618 45.0868 260.523 44.9088 261.294 44.5528C262.065 44.1672 262.688 43.7371 263.163 43.2625C263.638 42.7583 263.949 42.343 264.097 42.0167V32.673C264.097 32.1391 264.068 31.6496 264.008 31.2047C263.979 30.7301 263.815 30.3593 263.519 30.0924C263.222 29.7957 262.659 29.6474 261.828 29.6474C261.561 29.6474 261.309 29.6178 261.072 29.5584C260.864 29.4694 260.76 29.2025 260.76 28.7575C260.76 28.3126 260.998 28.0456 261.472 27.9567C262.837 27.749 263.875 27.5414 264.587 27.3337C265.328 27.1261 265.892 26.9481 266.277 26.7998C266.663 26.6515 267.004 26.5625 267.301 26.5329C267.538 26.5032 267.731 26.5477 267.879 26.6663C268.057 26.785 268.146 27.0223 268.146 27.3782V42.7731C268.146 44.5232 269.318 45.3982 271.661 45.3982C271.988 45.3982 272.195 45.4872 272.284 45.6652C272.373 45.8432 272.418 46.036 272.418 46.2436C272.418 46.6589 272.165 46.911 271.661 47L264.498 47.4894C264.29 47.4894 264.171 47.4004 264.142 47.2225C264.112 47.0445 264.097 46.8369 264.097 46.5996V44.1079H264.008C263.445 44.6418 262.837 45.1758 262.184 45.7097C261.561 46.2436 260.82 46.6737 259.959 47C259.129 47.356 258.091 47.5339 256.845 47.5339ZM284.69 47.5339C282.406 47.5339 280.478 47.0445 278.906 46.0656C277.363 45.0868 276.206 43.7816 275.435 42.1502C274.664 40.5187 274.278 38.739 274.278 36.8109C274.278 35.5058 274.501 34.2451 274.946 33.029C275.42 31.7831 276.088 30.656 276.948 29.6474C277.808 28.6092 278.846 27.7935 280.063 27.2003C281.279 26.607 282.658 26.3104 284.2 26.3104C286.929 26.3104 288.976 27.0223 290.341 28.4461C291.735 29.8402 292.536 31.62 292.743 33.7853C292.743 34.8235 292.447 35.5058 291.853 35.8321C291.29 36.1583 290.548 36.3215 289.629 36.3215H278.817C278.817 38.0419 279.054 39.5844 279.529 40.9488C280.003 42.2837 280.745 43.3515 281.753 44.1524C282.792 44.9236 284.156 45.3092 285.847 45.3092C287.093 45.3092 288.16 45.0423 289.05 44.5083C289.94 43.9744 290.8 43.0401 291.631 41.7052C291.868 41.4086 292.195 41.3938 292.61 41.6607C292.847 41.7794 292.995 41.9722 293.055 42.2392C293.114 42.4765 293.084 42.6841 292.966 42.8621C292.046 44.3155 290.889 45.4575 289.495 46.2881C288.101 47.1187 286.499 47.5339 284.69 47.5339ZM278.817 34.6307H286.069C286.781 34.6307 287.345 34.4972 287.76 34.2303C288.205 33.9337 288.442 33.4442 288.472 32.762C288.472 31.4865 288.116 30.3593 287.404 29.3805C286.722 28.3719 285.654 27.8677 284.2 27.8677C282.717 27.8677 281.472 28.4609 280.463 29.6474C279.484 30.8339 278.935 32.495 278.817 34.6307Z" fill="white"/>
<path d="M138.303 86.822C135.812 86.822 133.528 86.2288 131.451 85.0423C129.375 83.8558 127.699 82.165 126.423 79.97C125.178 77.7749 124.555 75.1498 124.555 72.0946C124.555 69.069 125.148 66.429 126.334 64.1747C127.521 61.8907 129.197 60.1257 131.362 58.8799C133.557 57.6044 136.138 56.9667 139.104 56.9667C140.172 56.9667 141.27 57.0705 142.397 57.2781C143.554 57.4858 144.621 57.8417 145.6 58.346C146.579 58.8206 147.365 59.4583 147.958 60.2592C148.581 61.0601 148.893 62.0538 148.893 63.2403C148.922 64.5158 148.537 65.643 147.736 66.6218C146.935 67.571 145.808 68.0456 144.354 68.0456C143.465 68.0456 142.827 67.838 142.441 67.4227C142.085 66.9778 141.922 66.6515 141.952 66.4439C141.952 66.3549 142.13 66.2066 142.486 65.9989C142.871 65.7616 143.242 65.4205 143.598 64.9756C143.984 64.501 144.176 63.878 144.176 63.1068C144.176 61.772 143.732 60.719 142.842 59.9478C141.952 59.1469 140.691 58.7464 139.06 58.7464C137.28 58.7464 135.678 59.2507 134.254 60.2592C132.86 61.2677 131.763 62.7509 130.962 64.7086C130.161 66.6367 129.76 69.0097 129.76 71.8276C129.76 74.2006 130.176 76.366 131.006 78.3237C131.867 80.2518 133.053 81.7942 134.566 82.951C136.108 84.0782 137.888 84.6418 139.905 84.6418C141.507 84.6418 142.871 84.3155 143.998 83.6629C145.155 82.9807 146.194 81.898 147.113 80.4149C147.38 79.9106 147.855 79.8661 148.537 80.2814C148.804 80.4594 149.011 80.6819 149.16 80.9488C149.308 81.1861 149.278 81.4383 149.071 81.7052C147.944 83.129 146.876 84.2117 145.867 84.9533C144.859 85.6652 143.761 86.1546 142.575 86.4216C141.388 86.6885 139.964 86.822 138.303 86.822ZM152.972 86.0656C152.764 86.0656 152.586 85.9766 152.438 85.7986C152.319 85.591 152.26 85.3834 152.26 85.1757C152.319 84.7308 152.438 84.4935 152.616 84.4638C152.794 84.4045 153.031 84.3748 153.328 84.3748C154.158 84.3748 154.722 84.2414 155.018 83.9744C155.315 83.6778 155.478 83.2922 155.508 82.8176C155.567 82.343 155.597 81.8535 155.597 81.3493V71.1602C155.597 70.6263 155.567 70.1368 155.508 69.6919C155.478 69.2173 155.315 68.8465 155.018 68.5796C154.722 68.2829 154.158 68.1346 153.328 68.1346C153.061 68.1346 152.808 68.105 152.571 68.0456C152.364 67.9566 152.26 67.6897 152.26 67.2447C152.26 66.7998 152.497 66.5328 152.972 66.4439C154.336 66.2362 155.374 66.0286 156.086 65.8209C156.828 65.6133 157.377 65.4353 157.732 65.287C158.118 65.1387 158.459 65.0497 158.756 65.0201C158.993 64.9904 159.186 65.0349 159.334 65.1535C159.512 65.2722 159.601 65.5095 159.601 65.8654V68.624H159.735C160.743 67.6452 161.781 66.8443 162.849 66.2214C163.917 65.5688 164.896 65.2425 165.786 65.2425C166.824 65.2425 167.61 65.6281 168.144 66.3994C168.708 67.1706 168.989 67.9863 168.989 68.8465C168.989 69.5881 168.752 70.3148 168.277 71.0267C167.803 71.7089 167.091 72.0501 166.142 72.0501C165.667 72.0501 165.282 71.9611 164.985 71.7831C164.718 71.5755 164.57 71.4272 164.54 71.3382C164.54 71.2788 164.673 71.1009 164.94 70.8042C165.237 70.5076 165.385 70.1368 165.385 69.6919C165.385 69.158 165.237 68.7279 164.94 68.4016C164.673 68.0753 164.303 67.9121 163.828 67.9121C163.324 67.9121 162.671 68.1643 161.87 68.6685C161.099 69.1728 160.358 69.7809 159.646 70.4928V81.3493C159.646 81.8535 159.661 82.343 159.69 82.8176C159.75 83.2922 159.927 83.6778 160.224 83.9744C160.55 84.2414 161.129 84.3748 161.959 84.3748C162.226 84.3748 162.449 84.4045 162.627 84.4638C162.834 84.4935 162.953 84.7308 162.983 85.1757C162.983 85.3834 162.923 85.591 162.805 85.7986C162.686 85.9766 162.508 86.0656 162.271 86.0656C161.411 86.0063 160.61 85.9618 159.868 85.9321C159.156 85.9321 158.4 85.9321 157.599 85.9321C156.798 85.9321 156.042 85.9321 155.33 85.9321C154.618 85.9618 153.832 86.0063 152.972 86.0656ZM177.168 86.4661C175.358 86.4661 173.905 85.947 172.807 84.9088C171.739 83.8706 171.205 82.6248 171.205 81.1713C171.205 79.6585 171.591 78.472 172.362 77.6118C173.163 76.7516 174.201 76.1138 175.477 75.6986C176.782 75.2833 178.191 75.0015 179.704 74.8532C181.246 74.7049 182.744 74.5862 184.198 74.4972V70.9822C184.198 69.5881 183.842 68.5054 183.13 67.7342C182.447 66.9333 181.276 66.5328 179.615 66.5328C178.784 66.5328 177.998 66.7998 177.257 67.3337C176.545 67.8677 176.189 68.6389 176.189 69.6474C176.189 70.122 176.307 70.5224 176.545 70.8487C176.782 71.175 177.019 71.4272 177.257 71.6051C177.494 71.7831 177.612 71.9018 177.612 71.9611C177.612 72.0797 177.435 72.3022 177.079 72.6285C176.752 72.9251 176.293 73.0734 175.699 73.0734C174.78 73.0734 174.068 72.7323 173.564 72.0501C173.059 71.3678 172.807 70.6114 172.807 69.7809C172.807 68.6537 173.148 67.7638 173.831 67.1113C174.542 66.4587 175.447 65.9841 176.545 65.6875C177.642 65.3908 178.755 65.2425 179.882 65.2425C181.216 65.2425 182.507 65.4057 183.753 65.732C185.028 66.0582 186.066 66.6812 186.867 67.6007C187.698 68.5202 188.113 69.8995 188.113 71.7386V82.1057C188.143 82.4023 188.217 82.7582 188.336 83.1735C188.454 83.5888 188.677 83.9596 189.003 84.2859C189.359 84.5825 189.833 84.7308 190.427 84.7308C190.634 84.7308 190.797 84.7753 190.916 84.8643C191.035 84.9236 191.094 85.1164 191.094 85.4427C191.094 85.7097 190.946 85.9173 190.649 86.0656C190.353 86.2139 190.011 86.3177 189.626 86.3771C189.24 86.4364 188.914 86.4661 188.647 86.4661C187.549 86.4661 186.571 86.1546 185.71 85.5317C184.85 84.8791 184.346 83.9892 184.198 82.8621C183.545 84.0486 182.566 84.9533 181.261 85.5762C179.985 86.1694 178.621 86.4661 177.168 86.4661ZM178.591 84.0634C179.6 84.0634 180.519 83.8113 181.35 83.307C182.21 82.8027 182.892 82.1205 183.397 81.2603C183.931 80.3704 184.198 79.3915 184.198 78.3237V75.7875C181.142 75.9952 178.962 76.4846 177.657 77.2558C176.352 78.0271 175.699 79.2877 175.699 81.0378C175.699 83.0549 176.663 84.0634 178.591 84.0634ZM196.299 86.555C196.032 86.555 195.824 86.4661 195.676 86.2881C195.528 86.1101 195.453 85.9025 195.453 85.6652V59.6808C195.453 59.1469 195.424 58.6574 195.364 58.2125C195.335 57.7379 195.172 57.3671 194.875 57.1002C194.578 56.8035 194.015 56.6552 193.184 56.6552C192.917 56.6552 192.665 56.6256 192.428 56.5662C192.22 56.4772 192.116 56.2103 192.116 55.7653C192.116 55.3204 192.354 55.0534 192.828 54.9645C194.193 54.7568 195.231 54.5492 195.943 54.3415C196.684 54.1339 197.248 53.9559 197.634 53.8076C198.019 53.6593 198.36 53.5703 198.657 53.5407C198.894 53.511 199.087 53.5555 199.235 53.6741C199.413 53.7928 199.502 54.0301 199.502 54.386V67.8232H199.636C200.526 66.9333 201.519 66.2807 202.617 65.8654C203.714 65.4502 204.767 65.2425 205.776 65.2425C207.526 65.2425 209.098 65.6875 210.492 66.5773C211.916 67.4672 213.043 68.6982 213.874 70.2703C214.704 71.8128 215.12 73.6222 215.12 75.6986C215.12 77.7156 214.645 79.5399 213.696 81.1713C212.747 82.8027 211.501 84.0931 209.958 85.0423C208.416 85.9915 206.74 86.4661 204.931 86.4661C202.291 86.4661 200.007 85.7393 198.079 84.2859H197.856C197.648 84.7308 197.441 85.2202 197.233 85.7542C197.055 86.2881 196.744 86.555 196.299 86.555ZM204.53 84.9533C206.31 84.9533 207.763 84.1375 208.891 82.5061C210.018 80.8747 210.581 78.6648 210.581 75.8765C210.581 74.4824 210.359 73.1476 209.914 71.8721C209.499 70.5966 208.816 69.5436 207.867 68.713C206.948 67.8825 205.732 67.4672 204.219 67.4672C203.21 67.4672 202.32 67.6452 201.549 68.0011C200.778 68.3571 200.096 68.8613 199.502 69.5139V81.2603C199.591 81.6756 199.829 82.1798 200.214 82.7731C200.63 83.3367 201.193 83.8409 201.905 84.2859C202.617 84.7308 203.492 84.9533 204.53 84.9533ZM229.5 86.0656C229.233 86.0656 229.04 85.9618 228.922 85.7542C228.803 85.5465 228.744 85.324 228.744 85.0867C228.774 84.5825 228.892 84.3007 229.1 84.2414C229.307 84.182 229.56 84.1524 229.856 84.1524C230.805 84.1524 231.473 83.9892 231.858 83.6629C232.244 83.307 232.481 82.8769 232.57 82.3726C232.689 81.8387 232.748 81.2899 232.748 80.7264V63.0623C232.748 62.4987 232.689 61.9648 232.57 61.4605C232.481 60.9266 232.244 60.4965 231.858 60.1702C231.473 59.8143 230.805 59.6363 229.856 59.6363C229.56 59.6363 229.307 59.6066 229.1 59.5473C228.892 59.488 228.774 59.2062 228.744 58.7019C228.744 58.4646 228.803 58.2422 228.922 58.0345C229.04 57.8269 229.233 57.7231 229.5 57.7231C230.479 57.7527 231.384 57.7824 232.214 57.8121C233.045 57.8417 233.905 57.8566 234.795 57.8566C236.604 57.8566 238.458 57.8121 240.357 57.7231C240.653 57.7231 240.861 57.8269 240.98 58.0345C241.098 58.2422 241.158 58.4646 241.158 58.7019C241.128 59.2062 241.009 59.488 240.802 59.5473C240.594 59.6066 240.342 59.6363 240.045 59.6363C239.126 59.6363 238.458 59.8143 238.043 60.1702C237.657 60.4965 237.42 60.9266 237.331 61.4605C237.242 61.9648 237.183 62.4987 237.153 63.0623V81.3938C237.183 81.7794 237.242 82.1947 237.331 82.6396C237.42 83.0845 237.672 83.4553 238.088 83.7519C238.532 84.0486 239.259 84.182 240.268 84.1524H244.272C245.31 84.1227 246.096 83.9596 246.63 83.6629C247.194 83.3367 247.639 82.8027 247.965 82.0612C248.291 81.3196 248.647 80.2962 249.033 78.9911C249.152 78.6945 249.344 78.5017 249.611 78.4127C249.908 78.3237 250.22 78.3089 250.546 78.3682C250.783 78.3978 251.02 78.5017 251.258 78.6796C251.525 78.8576 251.643 79.0949 251.614 79.3915L250.724 84.9978C250.635 85.413 250.486 85.68 250.279 85.7986C250.101 85.8876 249.819 85.9321 249.433 85.9321H234.84C233.95 85.9321 233.075 85.9321 232.214 85.9321C231.384 85.9618 230.479 86.0063 229.5 86.0656ZM259.724 86.4661C257.915 86.4661 256.462 85.947 255.364 84.9088C254.296 83.8706 253.762 82.6248 253.762 81.1713C253.762 79.6585 254.148 78.472 254.919 77.6118C255.72 76.7516 256.758 76.1138 258.034 75.6986C259.339 75.2833 260.748 75.0015 262.261 74.8532C263.803 74.7049 265.301 74.5862 266.754 74.4972V70.9822C266.754 69.5881 266.398 68.5054 265.687 67.7342C265.004 66.9333 263.833 66.5328 262.172 66.5328C261.341 66.5328 260.555 66.7998 259.813 67.3337C259.101 67.8677 258.746 68.6389 258.746 69.6474C258.746 70.122 258.864 70.5224 259.101 70.8487C259.339 71.175 259.576 71.4272 259.813 71.6051C260.051 71.7831 260.169 71.9018 260.169 71.9611C260.169 72.0797 259.991 72.3022 259.635 72.6285C259.309 72.9251 258.849 73.0734 258.256 73.0734C257.337 73.0734 256.625 72.7323 256.12 72.0501C255.616 71.3678 255.364 70.6114 255.364 69.7809C255.364 68.6537 255.705 67.7638 256.387 67.1113C257.099 66.4587 258.004 65.9841 259.101 65.6875C260.199 65.3908 261.311 65.2425 262.439 65.2425C263.773 65.2425 265.064 65.4057 266.309 65.732C267.585 66.0582 268.623 66.6812 269.424 67.6007C270.255 68.5202 270.67 69.8995 270.67 71.7386V82.1057C270.7 82.4023 270.774 82.7582 270.892 83.1735C271.011 83.5888 271.233 83.9596 271.56 84.2859C271.916 84.5825 272.39 84.7308 272.984 84.7308C273.191 84.7308 273.354 84.7753 273.473 84.8643C273.592 84.9236 273.651 85.1164 273.651 85.4427C273.651 85.7097 273.503 85.9173 273.206 86.0656C272.909 86.2139 272.568 86.3177 272.183 86.3771C271.797 86.4364 271.471 86.4661 271.204 86.4661C270.106 86.4661 269.127 86.1546 268.267 85.5317C267.407 84.8791 266.903 83.9892 266.754 82.8621C266.102 84.0486 265.123 84.9533 263.818 85.5762C262.542 86.1694 261.178 86.4661 259.724 86.4661ZM261.148 84.0634C262.157 84.0634 263.076 83.8113 263.907 83.307C264.767 82.8027 265.449 82.1205 265.954 81.2603C266.487 80.3704 266.754 79.3915 266.754 78.3237V75.7875C263.699 75.9952 261.519 76.4846 260.214 77.2558C258.909 78.0271 258.256 79.2877 258.256 81.0378C258.256 83.0549 259.22 84.0634 261.148 84.0634ZM285.129 95.6318C278.87 95.6318 275.741 93.852 275.741 90.2925C275.741 89.3137 276.053 88.4386 276.675 87.6674C277.298 86.9258 278.129 86.555 279.167 86.555C279.849 86.555 280.413 86.733 280.858 87.089C281.303 87.4746 281.525 87.7415 281.525 87.8899C281.525 87.9492 281.407 88.0827 281.169 88.2903C280.962 88.4979 280.739 88.7797 280.502 89.1357C280.294 89.4916 280.19 89.9662 280.19 90.5595C280.19 92.8435 282.148 93.9855 286.064 93.9855C288.288 93.9855 290.009 93.5999 291.225 92.8287C292.471 92.0574 293.094 90.8858 293.094 89.3137C293.094 88.4534 292.812 87.8009 292.248 87.3559C291.714 86.911 290.988 86.5995 290.068 86.4216C289.178 86.2436 288.185 86.1249 287.087 86.0656C285.989 86.0359 284.877 86.0063 283.75 85.9766C282.652 85.947 281.629 85.858 280.68 85.7097C279.642 85.5317 278.767 85.1906 278.055 84.6863C277.373 84.1524 277.031 83.2922 277.031 82.1057C277.031 81.0082 277.417 80.0589 278.188 79.2581C278.989 78.4275 280.176 78.0122 281.748 78.0122C279.849 77.2707 278.574 76.366 277.921 75.2981C277.298 74.2303 276.987 73.1328 276.987 72.0056C276.987 70.7301 277.343 69.5881 278.055 68.5796C278.796 67.5414 279.805 66.7256 281.08 66.1324C282.386 65.5095 283.883 65.198 285.574 65.198C286.405 65.198 287.265 65.2722 288.155 65.4205C289.074 65.5391 289.86 65.7616 290.513 66.0879L296.609 64.9311C296.935 64.9014 297.157 65.0052 297.276 65.2425C297.395 65.4798 297.454 65.732 297.454 65.9989C297.454 66.3845 297.395 66.7701 297.276 67.1558C297.157 67.5117 296.994 67.6897 296.787 67.6897L292.382 67.5117V67.6007C292.886 68.105 293.316 68.7724 293.672 69.6029C294.028 70.4335 294.206 71.2195 294.206 71.9611C294.206 73.3849 293.791 74.6159 292.96 75.6541C292.159 76.6923 291.121 77.4931 289.846 78.0567C288.6 78.5907 287.295 78.8576 285.93 78.8576H283.972C282.43 78.8576 281.303 79.0059 280.591 79.3026C279.909 79.5992 279.568 80.0886 279.568 80.7709C279.568 81.3048 279.746 81.7201 280.101 82.0167C280.487 82.2836 281.169 82.4468 282.148 82.5061L288.244 82.7286C291.418 82.8472 293.672 83.3515 295.007 84.2414C296.371 85.1312 297.054 86.4512 297.054 88.2013C297.054 89.7734 296.549 91.1082 295.541 92.2058C294.562 93.3329 293.168 94.1783 291.358 94.7419C289.579 95.3351 287.502 95.6318 285.129 95.6318ZM285.574 77.5673C286.939 77.5673 288.051 77.0927 288.911 76.1435C289.771 75.1646 290.202 73.7705 290.202 71.9611C290.202 70.3 289.757 68.9948 288.867 68.0456C288.007 67.0668 286.894 66.5773 285.53 66.5773C284.225 66.5773 283.127 67.0519 282.237 68.0011C281.377 68.9207 280.947 70.211 280.947 71.8721C280.947 73.6815 281.377 75.0905 282.237 76.099C283.127 77.0779 284.239 77.5673 285.574 77.5673ZM309.847 86.4661C307.771 86.4661 305.946 85.9766 304.374 84.9978C302.832 84.0189 301.63 82.7434 300.77 81.1713C299.91 79.5992 299.48 77.9232 299.48 76.1435C299.48 74.3934 299.791 72.8361 300.414 71.4716C301.037 70.1072 301.853 68.9652 302.861 68.0456C303.9 67.1261 305.027 66.429 306.243 65.9544C307.459 65.4798 308.66 65.2425 309.847 65.2425C311.923 65.2425 313.733 65.732 315.275 66.7108C316.847 67.6897 318.064 68.9652 318.924 70.5373C319.784 72.1094 320.214 73.7853 320.214 75.5651C320.214 77.3152 319.888 78.8724 319.235 80.2369C318.612 81.6014 317.782 82.7434 316.744 83.6629C315.735 84.5825 314.623 85.2796 313.406 85.7542C312.19 86.2288 311.004 86.4661 309.847 86.4661ZM309.847 84.8198C311.3 84.8198 312.442 84.3897 313.273 83.5295C314.133 82.6693 314.741 81.5421 315.097 80.1479C315.483 78.7241 315.676 77.1965 315.676 75.5651C315.676 73.993 315.483 72.5543 315.097 71.2492C314.712 69.944 314.089 68.891 313.229 68.0901C312.368 67.2892 311.241 66.8888 309.847 66.8888C308.394 66.8888 307.237 67.3189 306.376 68.1791C305.516 69.0097 304.908 70.122 304.552 71.5161C304.196 72.8806 304.018 74.3934 304.018 76.0545C304.018 77.597 304.196 79.0356 304.552 80.3704C304.938 81.7052 305.561 82.7879 306.421 83.6185C307.281 84.4193 308.423 84.8198 309.847 84.8198ZM334.223 86.4661C332.147 86.4661 330.322 85.9766 328.75 84.9978C327.208 84.0189 326.006 82.7434 325.146 81.1713C324.286 79.5992 323.856 77.9232 323.856 76.1435C323.856 74.3934 324.167 72.8361 324.79 71.4716C325.413 70.1072 326.229 68.9652 327.237 68.0456C328.276 67.1261 329.403 66.429 330.619 65.9544C331.835 65.4798 333.036 65.2425 334.223 65.2425C336.299 65.2425 338.109 65.732 339.651 66.7108C341.223 67.6897 342.439 68.9652 343.3 70.5373C344.16 72.1094 344.59 73.7853 344.59 75.5651C344.59 77.3152 344.264 78.8724 343.611 80.2369C342.988 81.6014 342.158 82.7434 341.12 83.6629C340.111 84.5825 338.999 85.2796 337.782 85.7542C336.566 86.2288 335.38 86.4661 334.223 86.4661ZM334.223 84.8198C335.676 84.8198 336.818 84.3897 337.649 83.5295C338.509 82.6693 339.117 81.5421 339.473 80.1479C339.859 78.7241 340.052 77.1965 340.052 75.5651C340.052 73.993 339.859 72.5543 339.473 71.2492C339.088 69.944 338.465 68.891 337.605 68.0901C336.744 67.2892 335.617 66.8888 334.223 66.8888C332.77 66.8888 331.613 67.3189 330.752 68.1791C329.892 69.0097 329.284 70.122 328.928 71.5161C328.572 72.8806 328.394 74.3934 328.394 76.0545C328.394 77.597 328.572 79.0356 328.928 80.3704C329.314 81.7052 329.937 82.7879 330.797 83.6185C331.657 84.4193 332.799 84.8198 334.223 84.8198ZM348.327 86.0656C348.12 86.0656 347.942 85.9766 347.793 85.7986C347.675 85.591 347.615 85.3834 347.615 85.1757C347.675 84.7308 347.793 84.4935 347.971 84.4638C348.149 84.4045 348.386 84.3748 348.683 84.3748C349.514 84.3748 350.077 84.2414 350.374 83.9744C350.67 83.6778 350.834 83.2922 350.863 82.8176C350.923 82.343 350.952 81.8535 350.952 81.3493V71.1602C350.952 70.6263 350.923 70.1368 350.863 69.6919C350.834 69.2173 350.67 68.8465 350.374 68.5796C350.077 68.2829 349.514 68.1346 348.683 68.1346C348.416 68.1346 348.164 68.105 347.927 68.0456C347.719 67.9566 347.615 67.6897 347.615 67.2447C347.615 66.7998 347.853 66.5328 348.327 66.4439C349.692 66.2362 350.73 66.0286 351.442 65.8209C352.183 65.6133 352.732 65.4353 353.088 65.287C353.474 65.1387 353.815 65.0497 354.111 65.0201C354.349 64.9904 354.541 65.0349 354.69 65.1535C354.868 65.2722 354.957 65.5095 354.957 65.8654V68.6685H355.09C355.683 68.105 356.292 67.571 356.914 67.0668C357.537 66.5328 358.264 66.1027 359.095 65.7764C359.955 65.4205 361.008 65.2425 362.254 65.2425C364.271 65.2425 365.873 65.8506 367.059 67.0668C368.246 68.2829 368.839 69.8847 368.839 71.8721V81.3493C368.839 81.8535 368.854 82.343 368.883 82.8176C368.943 83.2922 369.121 83.6778 369.417 83.9744C369.743 84.2414 370.322 84.3748 371.152 84.3748C371.419 84.3748 371.642 84.4045 371.82 84.4638C372.028 84.4935 372.146 84.7308 372.176 85.1757C372.176 85.3834 372.116 85.591 371.998 85.7986C371.879 85.9766 371.701 86.0656 371.464 86.0656C370.604 86.0063 369.803 85.9618 369.061 85.9321C368.349 85.9321 367.593 85.9321 366.792 85.9321C365.991 85.9321 365.235 85.9321 364.523 85.9321C363.811 85.9618 363.025 86.0063 362.165 86.0656C361.957 86.0656 361.779 85.9766 361.631 85.7986C361.512 85.591 361.453 85.3834 361.453 85.1757C361.482 84.7308 361.586 84.4935 361.764 84.4638C361.972 84.4045 362.209 84.3748 362.476 84.3748C363.307 84.3748 363.87 84.2414 364.167 83.9744C364.493 83.6778 364.671 83.2922 364.701 82.8176C364.76 82.343 364.79 81.8535 364.79 81.3493V71.9166C364.79 70.9377 364.567 70.1368 364.122 69.5139C363.707 68.891 363.173 68.4312 362.521 68.1346C361.868 67.838 361.201 67.6897 360.518 67.6897C359.51 67.6897 358.62 67.8825 357.849 68.2681C357.078 68.624 356.455 69.0393 355.98 69.5139C355.505 69.9885 355.179 70.4038 355.001 70.7597V81.3493C355.001 81.8535 355.016 82.343 355.046 82.8176C355.105 83.2922 355.283 83.6778 355.58 83.9744C355.906 84.2414 356.484 84.3748 357.315 84.3748C357.582 84.3748 357.804 84.4045 357.982 84.4638C358.19 84.4935 358.309 84.7308 358.338 85.1757C358.338 85.3834 358.279 85.591 358.16 85.7986C358.042 85.9766 357.864 86.0656 357.626 86.0656C356.766 86.0063 355.965 85.9618 355.224 85.9321C354.512 85.9321 353.755 85.9321 352.955 85.9321C352.154 85.9321 351.397 85.9321 350.685 85.9321C349.973 85.9618 349.187 86.0063 348.327 86.0656Z" fill="white"/>
<g clip-path="url(#clip0_285_144)">
<path d="M102.076 40.8444C101.915 39.6491 101.717 38.4591 101.474 37.2779C101.238 36.1304 100.997 34.9626 100.618 33.8528C100.373 33.1325 99.9515 31.7894 98.983 31.8022C97.9921 31.8153 97.9871 33.0088 98.0333 33.7263C98.1093 34.9106 98.2631 36.0886 98.3267 37.2735C98.3856 38.3671 98.4588 39.5606 98.2097 40.6359C97.9755 41.6465 97.4002 42.251 98.2016 43.2147C97.3069 43.6637 96.5237 44.4032 95.7589 45.0383C94.911 45.7425 94.0805 46.4677 93.2662 47.2106C92.4035 47.9975 91.5585 48.8036 90.7286 49.625C90.2408 50.1078 89.8473 50.4419 89.8549 51.179C88.3348 51.8283 87.1923 53.5033 86.4085 54.891C85.4669 54.5214 84.2788 54.8147 83.3372 55.0274C82.1669 55.292 81.0268 55.6763 79.8968 56.0757C78.925 56.4193 77.9186 56.7553 76.9838 57.1925C75.9581 57.672 76.1927 58.3838 76.6431 59.2384C76.2531 59.0198 75.8783 58.7295 75.7504 58.2827C75.6524 57.9396 75.7707 57.5871 75.668 57.2425C77.1761 57.109 78.7522 55.7333 79.8574 54.7948C80.946 53.8703 82.3746 52.6529 82.7742 51.2149C84.3005 51.7071 85.9837 49.889 86.9283 48.9421C87.4872 48.382 88.013 47.7899 88.5173 47.1802C88.8783 46.7439 89.5288 46.1675 89.2957 45.5357C90.8677 44.9872 92.2177 43.2936 93.2314 42.048C94.3366 40.69 96.1841 38.6288 95.0192 36.8013C96.0034 36.214 95.4789 34.8909 95.2484 34.0381C94.9329 32.8718 94.5691 31.7191 94.162 30.5816C93.7431 29.4114 93.2846 28.2518 92.775 27.118C92.4041 26.293 91.8818 24.92 90.9479 24.5781C88.5793 23.7107 90.4316 29.0057 90.6048 29.7474C90.8748 30.9009 91.1567 32.14 91.0752 33.3324C91.0005 34.4266 90.545 35.0466 91.5 35.8992C90.8158 36.3481 90.2491 37.1258 89.7108 37.7247C88.8974 38.6297 88.1311 39.5774 87.3711 40.5271C86.6553 41.4216 85.9552 42.3281 85.2778 43.2518C84.8298 43.863 84.4234 44.3291 84.5064 45.1288C83.1766 45.9893 82.2044 47.8556 81.7248 49.3251C80.4187 49.032 78.8225 49.8945 77.6813 50.4309C79.3362 49.2059 80.9195 47.8431 82.347 46.3583C82.9873 45.6925 83.594 44.9925 84.1445 44.2501C84.7049 43.4944 85.6406 42.3387 85.5328 41.3385C86.6367 40.8143 87.2298 39.3422 87.487 38.2344C87.779 36.9756 87.7115 35.5666 87.4278 34.3126C87.2462 33.5089 85.1792 27.4147 83.7795 29.1315C83.2292 27.2045 82.1316 25.46 80.9705 23.8462C80.3641 23.0037 79.7174 22.1911 79.0448 21.4007C78.5502 20.8194 77.7354 19.4526 76.8865 19.3955C76.7384 19.1525 76.555 19.1183 76.3579 18.9523C76.1677 18.7921 76.0932 18.6023 75.9697 18.3537C75.6785 17.768 75.3551 17.1981 74.9994 16.6493C74.3706 15.6798 73.6396 14.777 72.8178 13.9646C71.2976 12.4617 69.478 11.288 67.5131 10.4551C64.5367 9.19349 61.2376 8.66727 58.0141 8.78743C57.625 8.80194 53.6663 8.98601 53.8499 9.76266C53.9665 10.2553 55.8472 10.5051 56.2116 10.5942C57.8032 10.9836 59.4015 11.3438 60.9767 11.7971C62.666 12.2832 64.3654 12.8487 65.9055 13.7095C67.0922 14.3728 68.3524 15.3025 68.7577 16.6687C66.3086 14.7525 63.1668 13.5467 60.2803 12.4731C59.0674 12.0221 57.8384 11.5979 56.5849 11.2742C56.2565 11.1894 54.9227 10.7116 54.6116 11.0331C54.0688 11.5937 58.3094 14.0898 58.6895 14.3243C60.0093 15.1386 61.3483 15.9217 62.6945 16.6909C63.8828 17.3698 65.1499 17.9699 66.2461 18.7939C67.4397 19.6909 68.5191 20.7453 69.5573 21.8151C69.8767 22.1441 70.2252 22.4685 70.5116 22.8274C70.7994 23.1879 70.9386 23.6865 71.3123 23.979C71.0969 24.9521 71.8054 26.0801 72.2307 26.9124C72.7514 27.9315 73.3396 28.916 73.9973 29.8526C75.2213 31.5959 76.7079 33.4102 78.709 34.2738C77.2813 35.3625 79.3309 36.4615 80.1113 36.9142C79.1184 37.0797 78.2897 37.776 77.2813 37.8738C76.7292 37.9273 76.7373 37.7155 76.3706 37.4318C76.2459 37.3356 75.9436 37.1343 75.7624 37.1571C75.1731 37.2308 75.0066 37.9727 74.8543 38.4205C74.5943 39.1861 74.2674 40.1461 73.6615 40.7115C73.4152 40.3226 73.388 39.9115 72.8886 39.7335C72.5383 39.6088 72.2467 39.757 72.0188 40.0784C71.734 40.4796 71.7038 41.1482 71.5572 41.6086C71.38 42.1646 71.1778 42.751 70.8518 43.2399C70.4719 43.8091 69.9413 44.0588 69.3531 44.3648C68.6455 44.7329 67.9604 45.142 67.2861 45.5677C66.7303 45.9185 65.939 46.2695 65.5278 46.7928C65.169 47.2499 65.356 47.7519 65.553 48.2395C64.9082 47.8188 64.8498 47.0278 64.4955 46.4181C64.0582 45.6655 63.1357 45.9415 62.4029 45.8705C61.4212 45.7753 60.482 45.4441 59.6373 44.9381C59.3198 44.7478 59.0326 44.4926 58.6832 44.3646C57.5696 43.9566 56.2343 43.9022 55.0748 43.7045C54.3106 43.5743 53.5461 43.4451 52.7848 43.2991C52.2706 43.2005 51.6738 42.9391 51.1588 42.9391C50.6437 42.9391 50.047 43.2005 49.5328 43.2991C48.7715 43.4451 48.0069 43.5743 47.2428 43.7045C46.0832 43.9022 44.7482 43.9566 43.6344 44.3646C43.2849 44.4926 42.9977 44.7478 42.6805 44.9381C41.8355 45.4441 40.8966 45.7753 39.9147 45.8705C39.1819 45.9415 38.2593 45.6655 37.8223 46.4181C37.4678 47.0278 37.4095 47.8188 36.7648 48.2395C36.9617 47.7519 37.1488 47.2499 36.7898 46.7928C36.3786 46.2695 35.5872 45.9185 35.0315 45.5677C34.3571 45.142 33.6721 44.7329 32.9647 44.3648C32.3762 44.0588 31.8456 43.8091 31.4658 43.2399C31.1398 42.751 30.9376 42.1646 30.7606 41.6086C30.6138 41.1482 30.5835 40.4796 30.299 40.0784C30.0709 39.757 29.7795 39.6088 29.429 39.7335C28.9295 39.9115 28.9023 40.3226 28.6561 40.7115C28.0501 40.1461 27.7233 39.1861 27.4632 38.4205C27.3112 37.9727 27.1445 37.2308 26.5554 37.1571C26.3742 37.1343 26.0716 37.3356 25.9472 37.4318C25.5803 37.7155 25.5884 37.9273 25.0363 37.8738C24.0279 37.776 23.1993 37.0797 22.2063 36.9142C22.9866 36.4615 25.0363 35.3625 23.6086 34.2738C25.6096 33.4102 27.0965 31.5959 28.3203 29.8526C28.9779 28.916 29.5664 27.9315 30.0869 26.9124C30.5121 26.0801 31.2208 24.9521 31.0055 23.979C31.3792 23.6865 31.5181 23.1879 31.806 22.8274C32.0925 22.4685 32.4411 22.1441 32.7603 21.8151C33.7985 20.7453 34.8781 19.6909 36.0716 18.7939C37.1679 17.9699 38.4348 17.3698 39.6231 16.6909C40.9695 15.9217 42.3083 15.1386 43.628 14.3243C44.0083 14.0898 48.249 11.5937 47.7061 11.0331C47.3948 10.7116 46.0613 11.1894 45.7327 11.2742C44.4791 11.5979 43.2501 12.0221 42.0375 12.4731C39.1507 13.5467 36.0092 14.7525 33.5599 16.6687C33.9654 15.3025 35.2253 14.3728 36.4123 13.7095C37.9522 12.8487 39.6518 12.2832 41.3409 11.7971C42.9162 11.3438 44.5146 10.9836 46.106 10.5942C46.4705 10.5051 48.3511 10.2553 48.4677 9.76266C48.6515 8.98601 44.6925 8.80194 44.3037 8.78743C41.0799 8.66727 37.7809 9.19349 34.8045 10.4551C32.8396 11.288 31.0202 12.4617 29.4998 13.9646C28.678 14.777 27.9472 15.6798 27.3184 16.6493C26.9624 17.1981 26.6393 17.768 26.3481 18.3537C26.2246 18.6023 26.1501 18.7921 25.9599 18.9523C25.7628 19.1183 25.5792 19.1525 25.4311 19.3955C24.5822 19.4526 23.7674 20.8194 23.2727 21.4007C22.6002 22.1911 21.9535 23.0037 21.3472 23.8462C20.186 25.46 19.0885 27.2045 18.5381 29.1315C17.1384 27.4147 15.0716 33.5089 14.8898 34.3126C14.6062 35.5666 14.5387 36.9756 14.8308 38.2344C15.0878 39.3422 15.6809 40.8143 16.7847 41.3385C16.6771 42.3387 17.6128 43.4944 18.1731 44.2501C18.7236 44.9925 19.3304 45.6925 19.9707 46.3583C21.3982 47.8431 22.9814 49.2059 24.6365 50.4309C23.4951 49.8945 21.899 49.032 20.5929 49.3251C20.1134 47.8556 19.1411 45.9893 17.8113 45.1288C17.8941 44.3291 17.4879 43.863 17.0398 43.2518C16.3626 42.3281 15.6622 41.4216 14.9467 40.5271C14.1867 39.5774 13.4202 38.6297 12.6069 37.7247C12.0686 37.1258 11.5019 36.3481 10.8176 35.8992C11.7725 35.0466 11.3172 34.4266 11.2424 33.3324C11.161 32.14 11.4429 30.9009 11.7127 29.7474C11.8861 29.0057 13.7384 23.7107 11.3698 24.5781C10.4358 24.92 9.91346 26.293 9.54261 27.118C9.03298 28.2518 8.57462 29.4114 8.15572 30.5816C7.74857 31.7191 7.38473 32.8718 7.06933 34.0381C6.83868 34.8909 6.31439 36.214 7.29848 36.8013C6.13349 38.6288 7.98108 40.69 9.08626 42.048C10.0999 43.2936 11.4499 44.9872 13.0221 45.5357C12.7888 46.1675 13.4394 46.7439 13.8004 47.1802C14.3047 47.7899 14.8304 48.382 15.3893 48.9421C16.3339 49.889 18.0172 51.7071 19.5435 51.2149C19.9432 52.6529 21.3717 53.8703 22.4604 54.7948C23.5654 55.7333 25.1415 57.109 26.6496 57.2425C26.5471 57.5871 26.6654 57.9396 26.5672 58.2827C26.4393 58.7295 26.0646 59.0198 25.6747 59.2384C26.1251 58.3838 26.3595 57.672 25.3338 57.1925C24.399 56.7553 23.3928 56.4193 22.4207 56.0757C21.2908 55.6763 20.1508 55.292 18.9805 55.0274C18.039 54.8147 16.8509 54.5214 15.9092 54.891C15.1254 53.5033 13.9828 51.8283 12.4626 51.179C12.4704 50.4419 12.0768 50.1078 11.5891 49.625C10.7592 48.8036 9.91421 47.9975 9.05151 47.2106C8.23714 46.4677 7.40668 45.7425 6.55878 45.0383C5.79413 44.4032 5.01073 43.6637 4.11604 43.2147C4.91755 42.251 4.34208 41.6465 4.10802 40.6359C3.85895 39.5606 3.93214 38.3671 3.9909 37.2735C4.05459 36.0886 4.20831 34.9106 4.28445 33.7263C4.33052 33.0088 4.32558 31.8153 3.33459 31.8022C2.36621 31.7894 1.94497 33.1325 1.69917 33.8528C1.3204 34.9626 1.07937 36.1304 0.843715 37.2779C0.601104 38.4591 0.40247 39.6491 0.241447 40.8444C0.123538 41.7193 -0.0497956 42.6364 0.0135018 43.5254C0.0546391 44.0978 0.335541 44.5086 0.777417 44.6818C-0.00111501 46.5617 1.83216 48.1286 3.06576 49.2655C4.33251 50.4331 6.08672 52.0513 7.8389 52.3641C7.71939 53.0025 8.39135 53.434 8.80191 53.7968C9.49398 54.4085 10.2077 54.9969 10.9648 55.5266C12.0101 56.2579 13.8387 57.6044 15.1938 56.916C15.7273 58.0541 16.9814 58.9168 18.0025 59.5808C19.1609 60.3341 20.4224 61.0418 21.7436 61.4651C20.2835 61.7492 18.8199 62.0138 17.3566 62.2802C16.7617 62.3885 16.1203 62.4306 15.5909 62.741C15.3492 62.8829 15.1235 63.0635 14.8927 63.2229C15.2213 63.5314 15.5548 63.9444 16.0011 64.0696C16.8492 64.3077 17.9146 64.1827 18.7921 64.2388C20.8514 64.3704 22.9071 64.5677 24.9513 64.8518C26.8546 65.1164 28.7702 65.4216 30.6236 65.9388C32.284 66.402 33.9943 66.9998 35.1035 68.3959C34.4772 68.3959 33.8272 67.8426 33.2206 67.5944C32.2527 67.1989 31.2655 66.8492 30.2628 66.5526C28.2059 65.944 26.1424 65.5783 23.9928 65.6334C21.8415 65.6886 19.6971 65.9585 17.5758 66.3095C16.6143 66.4684 15.5918 66.5754 14.6595 66.8674C14.2729 66.9884 14.0035 67.2375 13.6847 67.4835C13.8322 67.7365 13.9653 68.0508 14.1875 68.2486C12.5287 68.2196 10.8492 68.1811 9.20221 68.4053C7.76319 68.6013 5.57782 69.0209 5.33586 70.782C4.20085 70.1861 3.18231 72.4747 2.80059 73.2205C2.20381 74.3864 1.79967 75.6814 1.75693 76.9972C1.71145 78.3968 2.04962 79.8365 2.52366 81.146C2.81775 81.9587 3.11626 82.2906 3.89 82.6591C4.64303 81.4064 4.74411 79.8946 5.23944 78.5207C5.85812 76.805 7.1187 75.0196 6.6898 73.1103C8.45761 74.0416 10.7695 73.2403 12.4843 72.5635C13.4031 72.2009 14.2938 71.7668 15.1421 71.2604C15.7811 70.8787 16.8741 70.3688 17.2585 69.699C18.5083 70.7708 20.2949 70.9109 21.8701 70.9607C23.7367 71.0199 25.6221 70.8662 27.4698 70.6077C28.4565 70.4698 29.438 70.2975 30.4173 70.1149C31.1623 69.9761 31.9712 69.7229 32.7344 69.6997C33.6946 69.6705 34.6759 69.7981 35.6407 69.7929C35.8077 69.792 36.1448 69.7315 36.2901 69.785C36.4614 69.8483 36.6675 70.1918 36.7906 70.3205C37.1543 70.7007 37.5272 71.0721 37.9077 71.4351C37.5971 71.8205 37.2095 72.5631 36.7383 72.7064C36.1413 72.8882 35.1714 72.499 34.6198 72.3217C34.1679 72.1763 33.719 72.022 33.2677 71.8749C31.9942 71.4595 30.472 70.8745 29.1177 71.1874C27.8547 71.479 27.2669 72.5898 27.2669 73.8182C27.0231 73.3861 26.843 72.6977 26.2925 72.5633C25.5676 72.3866 25.0749 73.2753 24.7778 73.78C23.9937 75.1129 23.5433 77.362 24.6672 78.652C23.2616 79.3321 21.9749 80.3557 21.1907 81.725C20.5819 82.788 20.0602 84.3349 20.6102 85.5271C19.8919 85.9601 20.1022 87.6484 20.1202 88.3214C20.1545 89.6029 20.3336 90.8939 20.7385 92.1131C21.4708 94.3188 23.1647 96.2907 25.6144 96.4626C28.2694 96.6488 29.0857 94.1894 29.1815 91.953C29.2408 90.5688 29.1236 89.183 28.9203 87.8146C28.7808 86.8752 28.7731 85.9136 28.0157 85.28C28.6649 84.0493 29.3434 82.8159 29.8356 81.5115C30.242 80.435 30.688 78.9506 29.982 77.895C30.2738 77.4204 29.969 76.99 29.631 76.657C30.6355 76.3604 31.6327 76.1773 32.6556 76.466C33.8697 76.8087 35.2426 77.0082 36.4458 76.5064C37.348 76.1302 38.0293 75.3756 38.3279 74.446C38.4423 74.09 38.3936 73.5553 38.5858 73.2773C38.74 73.0541 39.0787 72.8689 39.2899 72.6942C40.0619 73.3681 40.8438 74.0863 41.6633 74.6986C42.4628 75.2958 43.5485 75.2638 44.4945 75.3626C46.6993 75.5931 48.9387 75.9978 51.1588 75.9925C53.3789 75.9978 55.6185 75.5931 57.8233 75.3626C58.7691 75.2638 59.8548 75.2958 60.6542 74.6986C61.4738 74.0863 62.2559 73.3681 63.0279 72.6942C63.2389 72.8689 63.5778 73.0541 63.7318 73.2773C63.9239 73.5553 63.8753 74.09 63.9899 74.446C64.2885 75.3756 64.9698 76.1302 65.8717 76.5064C67.0749 77.0082 68.4481 76.8087 69.662 76.466C70.6851 76.1773 71.6823 76.3604 72.6868 76.657C72.3485 76.99 72.044 77.4204 72.3358 77.895C71.6295 78.9506 72.0756 80.435 72.482 81.5115C72.9742 82.8159 73.6527 84.0493 74.3018 85.28C73.5447 85.9136 73.5368 86.8752 73.3973 87.8146C73.1942 89.183 73.0767 90.5688 73.1361 91.953C73.2318 94.1894 74.0481 96.6488 76.7031 96.4626C79.1531 96.2907 80.8467 94.3188 81.5791 92.1131C81.984 90.8939 82.1632 89.6029 82.1973 88.3214C82.2153 87.6484 82.4258 85.9601 81.7075 85.5271C82.2576 84.3349 81.7358 82.788 81.1269 81.725C80.3427 80.3557 79.0562 79.3321 77.6506 78.652C78.7743 77.362 78.3239 75.1129 77.5398 73.78C77.2429 73.2753 76.7502 72.3866 76.0251 72.5633C75.4748 72.6977 75.2947 73.3861 75.0506 73.8182C75.0506 72.5898 74.4628 71.479 73.2001 71.1874C71.8455 70.8745 70.3234 71.4595 69.0501 71.8749C68.5988 72.022 68.1497 72.1763 67.698 72.3217C67.1461 72.499 66.1763 72.8882 65.5793 72.7064C65.1081 72.5631 64.7207 71.8205 64.4099 71.4351C64.7904 71.0721 65.1633 70.7007 65.5269 70.3205C65.6501 70.1918 65.8564 69.8483 66.0277 69.785C66.1728 69.7315 66.5101 69.792 66.6769 69.7929C67.6417 69.7981 68.6231 69.6705 69.5834 69.6997C70.3466 69.7229 71.1552 69.9761 71.9003 70.1149C72.8796 70.2975 73.8613 70.4698 74.848 70.6077C76.6955 70.8662 78.5808 71.0199 80.4476 70.9607C82.0227 70.9109 83.8093 70.7708 85.0591 69.699C85.4436 70.3688 86.5366 70.8787 87.1756 71.2604C88.0239 71.7668 88.9145 72.2009 89.8333 72.5635C91.548 73.2403 93.8601 74.0416 95.6278 73.1103C95.1989 75.0196 96.4595 76.805 97.0781 78.5207C97.5735 79.8946 97.6747 81.4064 98.4276 82.6591C99.2014 82.2906 99.4998 81.9587 99.794 81.146C100.268 79.8365 100.606 78.3968 100.561 76.9972C100.518 75.6814 100.114 74.3864 99.5171 73.2205C99.1353 72.4747 98.1168 70.1861 96.9817 70.782C96.7399 69.0209 94.5544 68.6013 93.1155 68.4053C91.4685 68.1811 89.789 68.2196 88.1302 68.2486C88.3523 68.0508 88.4855 67.7365 88.6329 67.4835C88.3142 67.2375 88.0447 66.9884 87.6581 66.8674C86.7259 66.5754 85.7032 66.4684 84.7419 66.3095C82.6206 65.9585 80.4763 65.6886 78.3247 65.6334C76.1751 65.5783 74.1117 65.944 72.0548 66.5526C71.052 66.8492 70.0651 67.1989 69.0972 67.5944C68.4904 67.8426 67.8404 68.3959 67.214 68.3959C68.3232 66.9998 70.0336 66.402 71.6942 65.9388C73.5475 65.4216 75.4629 65.1164 77.3665 64.8518C79.4105 64.5677 81.4663 64.3704 83.5256 64.2388C84.403 64.1827 85.4684 64.3077 86.3166 64.0696C86.7629 63.9444 87.0963 63.5314 87.425 63.2229C87.1941 63.0635 86.9684 62.8829 86.7268 62.741C86.1973 62.4306 85.556 62.3885 84.961 62.2802C83.4978 62.0138 82.0341 61.7492 80.574 61.4651C81.8952 61.0418 83.1567 60.3341 84.3152 59.5808C85.3363 58.9168 86.5903 58.0541 87.1237 56.916C88.4789 57.6044 90.3076 56.2579 91.3528 55.5266C92.1099 54.9969 92.8237 54.4085 93.5157 53.7968C93.9263 53.434 94.5982 53.0025 94.4788 52.3641C96.231 52.0513 97.9851 50.4331 99.2518 49.2655C100.485 48.1286 102.319 46.5617 101.54 44.6818C101.982 44.5086 102.263 44.0978 102.304 43.5254C102.368 42.6364 102.194 41.7193 102.076 40.8444Z" fill="white"/>
</g>
<defs>
<clipPath id="clip0_285_144">
<rect width="102.325" height="87.7068" fill="white" transform="translate(0 8.77075)"/>
</clipPath>
</defs>
</svg>
