<svg width="265" height="200" viewBox="0 0 265 200" fill="none" xmlns="http://www.w3.org/2000/svg">
<path d="M53.0891 47.756C52.7915 47.756 52.5831 47.6518 52.464 47.4435C52.345 47.2351 52.2854 47.0118 52.2854 46.7737C52.3152 46.2677 52.4343 45.9849 52.6426 45.9253C52.851 45.8658 53.104 45.836 53.4017 45.836C54.3542 45.836 55.024 45.6723 55.411 45.3449C55.7979 44.9877 56.0361 44.5561 56.1254 44.05C56.2444 43.5142 56.304 42.9635 56.304 42.3979V21.0996H53.2231C52.211 21.1294 51.4222 21.3526 50.8566 21.7694C50.291 22.1563 49.8743 22.7815 49.6064 23.6447C49.3385 24.4782 49.1004 25.5647 48.892 26.9042C48.8622 27.1721 48.6687 27.3805 48.3115 27.5293C47.9841 27.6484 47.6566 27.7079 47.3292 27.7079C47.1208 27.7079 46.8827 27.6335 46.6148 27.4846C46.3767 27.3358 46.2576 27.1126 46.2576 26.8149L46.3915 20.5192C46.3915 20.1024 46.5106 19.8196 46.7488 19.6708C46.9869 19.522 47.2697 19.4475 47.5971 19.4475H69.4313C69.7587 19.4475 70.0266 19.522 70.235 19.6708C70.4731 19.8196 70.5922 20.1024 70.5922 20.5192L70.7708 26.8149C70.7708 27.1126 70.6368 27.3358 70.3689 27.4846C70.1308 27.6335 69.8926 27.7079 69.6545 27.7079C69.3568 27.7079 69.0443 27.6484 68.7168 27.5293C68.3894 27.3805 68.1959 27.1721 68.1364 26.9042C67.928 25.5647 67.675 24.4782 67.3773 23.6447C67.1094 22.7815 66.6927 22.1563 66.1271 21.7694C65.5913 21.3526 64.8025 21.1294 63.7606 21.0996H60.7244V42.3979C60.7542 42.9635 60.8137 43.5142 60.903 44.05C60.9923 44.5561 61.2304 44.9877 61.6174 45.3449C62.0341 45.6723 62.7039 45.836 63.6267 45.836C63.9244 45.836 64.1774 45.8658 64.3857 45.9253C64.5941 45.9849 64.7132 46.2677 64.7429 46.7737C64.7429 47.0118 64.6834 47.2351 64.5643 47.4435C64.4453 47.6518 64.2369 47.756 63.9392 47.756C62.9867 47.6965 62.0788 47.6518 61.2155 47.6221C60.3821 47.6221 59.5337 47.6221 58.6705 47.6221C56.8844 47.6221 55.024 47.6667 53.0891 47.756ZM73.0877 47.756C72.8496 47.756 72.671 47.6667 72.5519 47.4881C72.4328 47.2797 72.3733 47.0714 72.3733 46.863C72.4031 46.4165 72.5073 46.1784 72.6859 46.1486C72.8942 46.0891 73.1324 46.0593 73.4003 46.0593C74.2338 46.0593 74.7993 45.9253 75.097 45.6574C75.4244 45.3598 75.603 44.9728 75.6328 44.4965C75.6923 44.0203 75.7221 43.5291 75.7221 43.0231V21.2336C75.7221 20.6978 75.6923 20.2066 75.6328 19.7601C75.603 19.2838 75.4393 18.9117 75.1417 18.6438C74.844 18.3462 74.2784 18.1973 73.4449 18.1973C73.177 18.1973 72.924 18.1676 72.6859 18.108C72.4775 18.0187 72.3733 17.7508 72.3733 17.3043C72.3733 16.8578 72.6115 16.5899 73.0877 16.5006C74.457 16.2922 75.4989 16.0839 76.2133 15.8755C76.9574 15.6671 77.523 15.4885 77.91 15.3397C78.297 15.1611 78.6393 15.0718 78.937 15.0718C79.1751 15.0718 79.3686 15.1313 79.5174 15.2504C79.696 15.3397 79.7853 15.5629 79.7853 15.9201V30.2976H79.8746C80.47 29.7321 81.0802 29.1963 81.7053 28.6902C82.3304 28.1544 83.0597 27.7228 83.8932 27.3953C84.7564 27.0381 85.8131 26.8595 87.0634 26.8595C89.0875 26.8595 90.6949 27.4698 91.8856 28.6902C93.0763 29.9107 93.6716 31.5181 93.6716 33.5125V43.0231C93.6716 43.5291 93.6865 44.0203 93.7163 44.4965C93.7758 44.9728 93.9544 45.3598 94.2521 45.6574C94.5795 45.9253 95.1451 46.0593 95.9488 46.0593C96.2465 46.0593 96.4846 46.0891 96.6632 46.1486C96.8418 46.1784 96.946 46.4165 96.9758 46.863C96.9758 47.0714 96.9163 47.2797 96.7972 47.4881C96.7079 47.6667 96.5442 47.756 96.306 47.756C95.4428 47.6965 94.6391 47.6518 93.8949 47.6221C93.1507 47.6221 92.3917 47.6221 91.6177 47.6221C90.814 47.6221 90.055 47.6221 89.3405 47.6221C88.6261 47.6518 87.8373 47.6965 86.9741 47.756C86.7359 47.756 86.5573 47.6667 86.4383 47.4881C86.3192 47.2797 86.2597 47.0714 86.2597 46.863C86.2894 46.4165 86.3936 46.1784 86.5722 46.1486C86.7508 46.0891 86.9889 46.0593 87.2866 46.0593C88.1201 46.0593 88.6857 45.9253 88.9833 45.6574C89.3108 45.3598 89.4894 44.9728 89.5191 44.4965C89.5489 44.0203 89.5638 43.5291 89.5638 43.0231V33.5571C89.5638 32.0688 89.1173 30.9972 88.2243 30.3423C87.3313 29.6576 86.3638 29.3153 85.322 29.3153C84.3099 29.3153 83.4169 29.5088 82.643 29.8958C81.869 30.253 81.2439 30.6697 80.7676 31.146C80.2914 31.6223 79.9639 32.039 79.7853 32.3962V43.0231C79.7853 43.5291 79.8002 44.0203 79.83 44.4965C79.8895 44.9728 80.0681 45.3598 80.3658 45.6574C80.6932 45.9253 81.2588 46.0593 82.0625 46.0593C82.3602 46.0593 82.5983 46.0891 82.7769 46.1486C82.9555 46.1784 83.0597 46.4165 83.0895 46.863C83.0895 47.0714 83.0299 47.2797 82.9109 47.4881C82.8216 47.6667 82.6578 47.756 82.4197 47.756C81.5565 47.6965 80.7527 47.6518 80.0086 47.6221C79.2644 47.6221 78.5053 47.6221 77.7314 47.6221C76.9277 47.6221 76.1686 47.6221 75.4542 47.6221C74.7398 47.6518 73.951 47.6965 73.0877 47.756ZM109.744 48.1579C107.452 48.1579 105.517 47.6667 103.94 46.6844C102.392 45.7021 101.231 44.3923 100.457 42.7552C99.6829 41.118 99.2959 39.3319 99.2959 37.3971C99.2959 36.0873 99.5191 34.8222 99.9656 33.6018C100.442 32.3516 101.112 31.2204 101.975 30.2083C102.838 29.1665 103.88 28.3479 105.1 27.7526C106.321 27.1572 107.705 26.8595 109.253 26.8595C111.992 26.8595 114.045 27.5739 115.415 29.0028C116.814 30.4018 117.618 32.1878 117.826 34.3608C117.826 35.4027 117.528 36.0873 116.933 36.4148C116.367 36.7422 115.623 36.9059 114.7 36.9059H103.85C103.85 38.6324 104.088 40.1803 104.565 41.5496C105.041 42.8891 105.785 43.9607 106.797 44.7644C107.839 45.5384 109.208 45.9253 110.905 45.9253C112.155 45.9253 113.227 45.6574 114.12 45.1216C115.013 44.5858 115.876 43.6482 116.71 42.3086C116.948 42.011 117.275 41.9961 117.692 42.264C117.93 42.3831 118.079 42.5766 118.138 42.8445C118.198 43.0826 118.168 43.291 118.049 43.4696C117.126 44.9282 115.965 46.0742 114.566 46.9077C113.167 47.7411 111.56 48.1579 109.744 48.1579ZM103.85 35.2092H111.128C111.843 35.2092 112.408 35.0753 112.825 34.8073C113.272 34.5097 113.51 34.0185 113.539 33.3339C113.539 32.0539 113.182 30.9227 112.468 29.9404C111.783 28.9284 110.712 28.4223 109.253 28.4223C107.765 28.4223 106.514 29.0177 105.502 30.2083C104.52 31.399 103.969 33.066 103.85 35.2092ZM132.498 47.756C132.201 47.756 131.992 47.6518 131.873 47.4435C131.754 47.2351 131.695 47.0118 131.695 46.7737C131.725 46.2677 131.844 45.9849 132.052 45.9253C132.26 45.8658 132.513 45.836 132.811 45.836C133.764 45.836 134.433 45.6723 134.82 45.3449C135.207 44.9877 135.445 44.5561 135.535 44.05C135.654 43.5142 135.713 42.9635 135.713 42.3979V24.6717C135.713 24.1061 135.654 23.5703 135.535 23.0642C135.445 22.5284 135.207 22.0968 134.82 21.7694C134.433 21.4122 133.764 21.2336 132.811 21.2336C132.513 21.2336 132.26 21.2038 132.052 21.1443C131.844 21.0847 131.725 20.8019 131.695 20.2959C131.695 20.0578 131.754 19.8345 131.873 19.6261C131.992 19.4178 132.201 19.3136 132.498 19.3136C133.451 19.3434 134.344 19.3731 135.178 19.4029C136.011 19.4327 136.874 19.4475 137.767 19.4475H144.063C145.789 19.4475 147.144 19.5815 148.126 19.8494C149.138 20.0875 150.016 20.4447 150.761 20.921C151.535 21.427 152.145 22.1266 152.591 23.0196C153.038 23.8828 153.261 24.8354 153.261 25.8772C153.261 27.2167 152.948 28.3479 152.323 29.2707C151.698 30.1637 150.909 30.8781 149.957 31.4139C149.034 31.9199 148.126 32.2771 147.233 32.4855V32.6195C148.811 32.5897 150.21 32.8725 151.43 33.4678C152.651 34.0632 153.618 34.852 154.333 35.8343C155.047 36.8166 155.419 37.8882 155.449 39.0492C155.508 40.7459 155.151 42.1449 154.377 43.2463C153.603 44.3477 152.591 45.2258 151.341 45.8807C150.121 46.5356 148.781 46.997 147.322 47.2649C145.894 47.5328 144.509 47.6667 143.17 47.6667L137.812 47.6221C136.919 47.6221 136.041 47.6221 135.178 47.6221C134.344 47.6518 133.451 47.6965 132.498 47.756ZM140.134 31.7265H142.009C142.604 31.7265 143.274 31.6967 144.018 31.6372C144.763 31.5776 145.477 31.399 146.162 31.1013C146.846 30.7739 147.397 30.253 147.814 29.5386C148.26 28.7944 148.483 27.7526 148.483 26.413C148.483 24.8354 148.096 23.5554 147.322 22.5731C146.578 21.5908 145.224 21.0996 143.259 21.0996H140.134V31.7265ZM143.349 45.8807C144.688 45.8509 145.909 45.6277 147.01 45.2109C148.111 44.7942 148.989 44.0947 149.644 43.1124C150.299 42.13 150.627 40.7756 150.627 39.0492C150.537 38.0966 150.21 37.2036 149.644 36.3701C149.109 35.5366 148.215 34.852 146.965 34.3162C145.745 33.7804 144.078 33.5125 141.964 33.5125H140.134V42.3979C140.134 43.8863 140.357 44.8388 140.803 45.2556C141.25 45.6723 142.098 45.8807 143.349 45.8807ZM158.552 47.756C158.343 47.756 158.165 47.6667 158.016 47.4881C157.897 47.2797 157.837 47.0714 157.837 46.863C157.867 46.4165 157.971 46.1784 158.15 46.1486C158.358 46.0891 158.596 46.0593 158.864 46.0593C159.698 46.0593 160.263 45.9253 160.561 45.6574C160.888 45.3598 161.067 44.9728 161.097 44.4965C161.156 44.0203 161.186 43.5291 161.186 43.0231V21.2336C161.186 20.6978 161.156 20.2066 161.097 19.7601C161.067 19.2838 160.903 18.9117 160.606 18.6438C160.308 18.3462 159.742 18.1973 158.909 18.1973C158.641 18.1973 158.388 18.1676 158.15 18.108C157.942 18.0187 157.837 17.7508 157.837 17.3043C157.837 16.8578 158.075 16.5899 158.552 16.5006C159.921 16.2922 160.963 16.0839 161.677 15.8755C162.421 15.6671 162.987 15.4885 163.374 15.3397C163.761 15.1908 164.103 15.1015 164.401 15.0718C164.639 15.042 164.833 15.0867 164.981 15.2057C165.16 15.3248 165.249 15.5629 165.249 15.9201V43.0231C165.249 43.5291 165.264 44.0203 165.294 44.4965C165.354 44.9728 165.532 45.3598 165.83 45.6574C166.157 45.9253 166.738 46.0593 167.571 46.0593C167.839 46.0593 168.062 46.0891 168.241 46.1486C168.449 46.1784 168.568 46.4165 168.598 46.863C168.598 47.0714 168.539 47.2797 168.42 47.4881C168.3 47.6667 168.122 47.756 167.884 47.756C167.02 47.6965 166.217 47.6518 165.473 47.6221C164.758 47.6221 163.999 47.6221 163.195 47.6221C162.392 47.6221 161.633 47.6221 160.918 47.6221C160.204 47.6518 159.415 47.6965 158.552 47.756ZM180.041 48.1579C178.017 48.1579 176.409 47.5477 175.219 46.3272C174.028 45.1068 173.433 43.4993 173.433 41.5049V33.2446C173.433 32.7088 173.403 32.2176 173.343 31.7711C173.314 31.2948 173.15 30.9227 172.852 30.6548C172.554 30.3572 171.989 30.2083 171.155 30.2083C170.888 30.2083 170.635 30.1786 170.396 30.119C170.188 30.0297 170.084 29.7618 170.084 29.3153C170.084 28.8688 170.322 28.6009 170.798 28.5116C172.168 28.3032 173.209 28.0949 173.924 27.8865C174.668 27.6781 175.234 27.4995 175.621 27.3507C176.007 27.2019 176.35 27.1126 176.647 27.0828C176.886 27.053 177.079 27.0977 177.228 27.2167C177.407 27.3358 177.496 27.574 177.496 27.9312V41.4603C177.496 42.4426 177.704 43.2463 178.121 43.8714C178.567 44.4965 179.118 44.9579 179.773 45.2556C180.428 45.5533 181.098 45.7021 181.782 45.7021C182.824 45.7021 183.732 45.5235 184.506 45.1663C185.28 44.7793 185.905 44.3477 186.381 43.8714C186.858 43.3654 187.17 42.9486 187.319 42.6212V33.2446C187.319 32.7088 187.289 32.2176 187.23 31.7711C187.2 31.2948 187.036 30.9227 186.739 30.6548C186.441 30.3572 185.875 30.2083 185.042 30.2083C184.774 30.2083 184.521 30.1786 184.283 30.119C184.074 30.0297 183.97 29.7618 183.97 29.3153C183.97 28.8688 184.208 28.6009 184.685 28.5116C186.054 28.3032 187.096 28.0949 187.81 27.8865C188.554 27.6781 189.12 27.4995 189.507 27.3507C189.894 27.2019 190.236 27.1126 190.534 27.0828C190.772 27.053 190.965 27.0977 191.114 27.2167C191.293 27.3358 191.382 27.574 191.382 27.9312V43.3803C191.382 45.1365 192.558 46.0146 194.91 46.0146C195.237 46.0146 195.445 46.1039 195.535 46.2826C195.624 46.4612 195.669 46.6546 195.669 46.863C195.669 47.2797 195.416 47.5328 194.91 47.6221L187.721 48.1132C187.512 48.1132 187.393 48.0239 187.364 47.8453C187.334 47.6667 187.319 47.4584 187.319 47.2202V44.7198H187.23C186.664 45.2556 186.054 45.7914 185.399 46.3272C184.774 46.863 184.03 47.2946 183.166 47.6221C182.333 47.9793 181.291 48.1579 180.041 48.1579ZM207.984 48.1579C205.692 48.1579 203.757 47.6667 202.18 46.6844C200.632 45.7021 199.471 44.3923 198.697 42.7552C197.923 41.118 197.536 39.3319 197.536 37.3971C197.536 36.0873 197.759 34.8222 198.206 33.6018C198.682 32.3516 199.352 31.2204 200.215 30.2083C201.078 29.1665 202.12 28.3479 203.34 27.7526C204.561 27.1572 205.945 26.8595 207.493 26.8595C210.232 26.8595 212.286 27.5739 213.655 29.0028C215.054 30.4018 215.858 32.1878 216.066 34.3608C216.066 35.4027 215.768 36.0873 215.173 36.4148C214.607 36.7422 213.863 36.9059 212.94 36.9059H202.09C202.09 38.6324 202.328 40.1803 202.805 41.5496C203.281 42.8891 204.025 43.9607 205.037 44.7644C206.079 45.5384 207.448 45.9253 209.145 45.9253C210.395 45.9253 211.467 45.6574 212.36 45.1216C213.253 44.5858 214.116 43.6482 214.95 42.3086C215.188 42.011 215.515 41.9961 215.932 42.264C216.17 42.3831 216.319 42.5766 216.378 42.8445C216.438 43.0826 216.408 43.291 216.289 43.4696C215.366 44.9282 214.205 46.0742 212.806 46.9077C211.407 47.7411 209.8 48.1579 207.984 48.1579ZM202.09 35.2092H209.368C210.083 35.2092 210.648 35.0753 211.065 34.8073C211.512 34.5097 211.75 34.0185 211.779 33.3339C211.779 32.0539 211.422 30.9227 210.708 29.9404C210.023 28.9284 208.952 28.4223 207.493 28.4223C206.005 28.4223 204.754 29.0177 203.742 30.2083C202.76 31.399 202.209 33.066 202.09 35.2092Z" fill="white"/>
<path d="M15.9849 87.5844C13.4845 87.5844 11.1924 86.9891 9.10872 85.7984C7.02503 84.6077 5.34319 82.911 4.0632 80.7082C2.81299 78.5055 2.18788 75.8711 2.18788 72.8051C2.18788 69.7688 2.78322 67.1196 3.9739 64.8573C5.16459 62.5652 6.84643 60.7941 9.01942 59.5438C11.2222 58.2639 13.8119 57.6239 16.7886 57.6239C17.8602 57.6239 18.9616 57.728 20.0928 57.9364C21.2537 58.1448 22.3253 58.502 23.3076 59.008C24.2899 59.4843 25.0788 60.1243 25.6741 60.928C26.2992 61.7317 26.6118 62.7289 26.6118 63.9196C26.6415 65.1996 26.2546 66.3307 25.4508 67.313C24.6471 68.2656 23.516 68.7419 22.0574 68.7419C21.1644 68.7419 20.5244 68.5335 20.1374 68.1168C19.7802 67.6702 19.6165 67.3428 19.6463 67.1344C19.6463 67.0451 19.8249 66.8963 20.1821 66.6879C20.569 66.4498 20.9411 66.1075 21.2983 65.661C21.6853 65.1847 21.8788 64.5596 21.8788 63.7856C21.8788 62.4461 21.4323 61.3894 20.5393 60.6155C19.6463 59.8117 18.3812 59.4099 16.744 59.4099C14.958 59.4099 13.3505 59.9159 11.9217 60.928C10.5227 61.9401 9.42128 63.4284 8.61757 65.3931C7.81386 67.3279 7.412 69.7093 7.412 72.5372C7.412 74.9185 7.82874 77.0915 8.66222 79.0562C9.52546 80.991 10.7161 82.5389 12.2343 83.6998C13.7822 84.831 15.5682 85.3965 17.5923 85.3965C19.1998 85.3965 20.569 85.0691 21.7002 84.4142C22.8611 83.7296 23.903 82.6431 24.8257 81.1547C25.0936 80.6487 25.5699 80.604 26.2546 81.0208C26.5225 81.1994 26.7308 81.4226 26.8797 81.6905C27.0285 81.9287 26.9987 82.1817 26.7904 82.4496C25.6592 83.8784 24.5876 84.9649 23.5755 85.7091C22.5634 86.4235 21.4621 86.9147 20.2714 87.1826C19.0807 87.4505 17.6519 87.5844 15.9849 87.5844ZM30.705 86.8254C30.4966 86.8254 30.318 86.7361 30.1692 86.5575C30.0501 86.3491 29.9906 86.1407 29.9906 85.9323C30.0501 85.4858 30.1692 85.2477 30.3478 85.2179C30.5264 85.1584 30.7645 85.1286 31.0622 85.1286C31.8956 85.1286 32.4612 84.9947 32.7589 84.7268C33.0566 84.4291 33.2203 84.0421 33.25 83.5659C33.3096 83.0896 33.3393 82.5984 33.3393 82.0924V71.8674C33.3393 71.3316 33.3096 70.8404 33.25 70.3939C33.2203 69.9177 33.0566 69.5456 32.7589 69.2777C32.4612 68.98 31.8956 68.8312 31.0622 68.8312C30.7943 68.8312 30.5412 68.8014 30.3031 68.7419C30.0947 68.6526 29.9906 68.3847 29.9906 67.9382C29.9906 67.4916 30.2287 67.2237 30.705 67.1344C32.0742 66.9261 33.1161 66.7177 33.8305 66.5093C34.5747 66.301 35.1254 66.1224 35.4826 65.9735C35.8695 65.8247 36.2119 65.7354 36.5095 65.7056C36.7477 65.6759 36.9412 65.7205 37.09 65.8396C37.2686 65.9586 37.3579 66.1968 37.3579 66.554V69.3223H37.4919C38.5039 68.34 39.5458 67.5363 40.6174 66.9112C41.689 66.2563 42.6713 65.9289 43.5643 65.9289C44.6062 65.9289 45.395 66.3158 45.9308 67.0898C46.4964 67.8637 46.7792 68.6823 46.7792 69.5456C46.7792 70.2898 46.541 71.019 46.0648 71.7335C45.5885 72.4181 44.8741 72.7604 43.9215 72.7604C43.4453 72.7604 43.0583 72.6711 42.7606 72.4925C42.4927 72.2841 42.3439 72.1353 42.3141 72.046C42.3141 71.9865 42.4481 71.8079 42.716 71.5102C43.0136 71.2125 43.1625 70.8404 43.1625 70.3939C43.1625 69.8581 43.0136 69.4265 42.716 69.0991C42.4481 68.7716 42.076 68.6079 41.5997 68.6079C41.0937 68.6079 40.4388 68.8609 39.6351 69.367C38.8611 69.873 38.117 70.4832 37.4026 71.1976V82.0924C37.4026 82.5984 37.4174 83.0896 37.4472 83.5659C37.5067 84.0421 37.6853 84.4291 37.983 84.7268C38.3104 84.9947 38.8909 85.1286 39.7244 85.1286C39.9923 85.1286 40.2155 85.1584 40.3941 85.2179C40.6025 85.2477 40.7216 85.4858 40.7513 85.9323C40.7513 86.1407 40.6918 86.3491 40.5727 86.5575C40.4537 86.7361 40.2751 86.8254 40.0369 86.8254C39.1737 86.7658 38.37 86.7212 37.6258 86.6914C36.9114 86.6914 36.1523 86.6914 35.3486 86.6914C34.5449 86.6914 33.7859 86.6914 33.0714 86.6914C32.357 86.7212 31.5682 86.7658 30.705 86.8254ZM54.9862 87.2272C53.1704 87.2272 51.7118 86.7063 50.6104 85.6644C49.5388 84.6226 49.003 83.3724 49.003 81.9138C49.003 80.3957 49.39 79.205 50.1639 78.3417C50.9676 77.4785 52.0095 76.8385 53.2894 76.4218C54.5992 76.005 56.0131 75.7222 57.5313 75.5734C59.0791 75.4246 60.5824 75.3055 62.041 75.2162V71.6888C62.041 70.2898 61.6838 69.2033 60.9693 68.4293C60.2847 67.6256 59.1089 67.2237 57.442 67.2237C56.6085 67.2237 55.8196 67.4916 55.0755 68.0275C54.3611 68.5633 54.0039 69.3372 54.0039 70.3493C54.0039 70.8256 54.1229 71.2274 54.3611 71.5549C54.5992 71.8823 54.8373 72.1353 55.0755 72.3139C55.3136 72.4925 55.4327 72.6116 55.4327 72.6711C55.4327 72.7902 55.2541 73.0134 54.8969 73.3409C54.5694 73.6385 54.108 73.7874 53.5127 73.7874C52.5899 73.7874 51.8755 73.4451 51.3695 72.7604C50.8634 72.0758 50.6104 71.3167 50.6104 70.4832C50.6104 69.3521 50.9527 68.4591 51.6374 67.8042C52.3518 67.1493 53.2597 66.6731 54.3611 66.3754C55.4624 66.0777 56.5787 65.9289 57.7099 65.9289C59.0494 65.9289 60.3442 66.0926 61.5945 66.42C62.8744 66.7475 63.9163 67.3726 64.72 68.2954C65.5535 69.2181 65.9702 70.6023 65.9702 72.4479V82.8515C66 83.1491 66.0744 83.5063 66.1935 83.9231C66.3125 84.3398 66.5358 84.7119 66.8632 85.0393C67.2204 85.337 67.6967 85.4858 68.292 85.4858C68.5004 85.4858 68.6641 85.5305 68.7832 85.6198C68.9023 85.6793 68.9618 85.8728 68.9618 86.2002C68.9618 86.4682 68.813 86.6765 68.5153 86.8254C68.2176 86.9742 67.8753 87.0784 67.4883 87.1379C67.1014 87.1974 66.7739 87.2272 66.506 87.2272C65.4046 87.2272 64.4223 86.9147 63.5591 86.2896C62.6958 85.6347 62.1898 84.7417 62.041 83.6105C61.3861 84.8012 60.4038 85.7091 59.094 86.3342C57.814 86.9295 56.4448 87.2272 54.9862 87.2272ZM56.415 84.8161C57.4271 84.8161 58.3498 84.5631 59.1833 84.057C60.0466 83.551 60.7312 82.8663 61.2373 82.0031C61.7731 81.1101 62.041 80.1278 62.041 79.0562V76.5111C58.975 76.7194 56.7871 77.2106 55.4773 77.9845C54.1676 78.7585 53.5127 80.0236 53.5127 81.7798C53.5127 83.804 54.4801 84.8161 56.415 84.8161ZM74.1849 87.3165C73.917 87.3165 73.7086 87.2272 73.5598 87.0486C73.4109 86.87 73.3365 86.6616 73.3365 86.4235V60.3476C73.3365 59.8117 73.3068 59.3206 73.2472 58.8741C73.2175 58.3978 73.0537 58.0257 72.7561 57.7578C72.4584 57.4601 71.8928 57.3113 71.0593 57.3113C70.7914 57.3113 70.5384 57.2815 70.3003 57.222C70.0919 57.1327 69.9877 56.8648 69.9877 56.4183C69.9877 55.9718 70.2259 55.7039 70.7021 55.6146C72.0714 55.4062 73.1133 55.1978 73.8277 54.9895C74.5719 54.7811 75.1374 54.6025 75.5244 54.4537C75.9114 54.3048 76.2537 54.2155 76.5514 54.1858C76.7895 54.156 76.983 54.2007 77.1318 54.3197C77.3104 54.4388 77.3997 54.6769 77.3997 55.0341V68.5186H77.5337C78.4267 67.6256 79.4239 66.9707 80.5253 66.554C81.6267 66.1372 82.6834 65.9289 83.6955 65.9289C85.4517 65.9289 87.0294 66.3754 88.4284 67.2684C89.8572 68.1614 90.9884 69.3967 91.8219 70.9744C92.6553 72.5223 93.0721 74.3381 93.0721 76.4218C93.0721 78.4459 92.5958 80.2766 91.6433 81.9138C90.6907 83.551 89.4405 84.8458 87.8926 85.7984C86.3447 86.7509 84.6629 87.2272 82.8471 87.2272C80.1978 87.2272 77.9058 86.4979 75.9709 85.0393H75.7477C75.5393 85.4858 75.3309 85.977 75.1225 86.5128C74.9439 87.0486 74.6314 87.3165 74.1849 87.3165ZM82.4452 85.7091C84.2313 85.7091 85.6899 84.8905 86.821 83.2533C87.9522 81.6161 88.5177 79.3985 88.5177 76.6004C88.5177 75.2013 88.2945 73.8618 87.848 72.5818C87.4312 71.3018 86.7466 70.2451 85.794 69.4116C84.8713 68.5781 83.6508 68.1614 82.1327 68.1614C81.1206 68.1614 80.2276 68.34 79.4537 68.6972C78.6797 69.0544 77.9951 69.5605 77.3997 70.2153V82.0031C77.489 82.4198 77.7272 82.9259 78.1141 83.5212C78.5309 84.0868 79.0964 84.5928 79.8109 85.0393C80.5253 85.4858 81.4034 85.7091 82.4452 85.7091ZM107.503 86.8254C107.235 86.8254 107.042 86.7212 106.923 86.5128C106.804 86.3044 106.744 86.0812 106.744 85.843C106.774 85.337 106.893 85.0542 107.101 84.9947C107.31 84.9351 107.563 84.9054 107.861 84.9054C108.813 84.9054 109.483 84.7417 109.87 84.4142C110.257 84.057 110.495 83.6254 110.584 83.1194C110.703 82.5836 110.763 82.0329 110.763 81.4673V63.741C110.763 63.1754 110.703 62.6396 110.584 62.1336C110.495 61.5978 110.257 61.1661 109.87 60.8387C109.483 60.4815 108.813 60.3029 107.861 60.3029C107.563 60.3029 107.31 60.2731 107.101 60.2136C106.893 60.1541 106.774 59.8713 106.744 59.3652C106.744 59.1271 106.804 58.9038 106.923 58.6955C107.042 58.4871 107.235 58.3829 107.503 58.3829C108.486 58.4127 109.394 58.4425 110.227 58.4722C111.06 58.502 111.924 58.5169 112.817 58.5169C114.633 58.5169 116.493 58.4722 118.398 58.3829C118.696 58.3829 118.904 58.4871 119.023 58.6955C119.142 58.9038 119.202 59.1271 119.202 59.3652C119.172 59.8713 119.053 60.1541 118.845 60.2136C118.636 60.2731 118.383 60.3029 118.085 60.3029C117.163 60.3029 116.493 60.4815 116.076 60.8387C115.689 61.1661 115.451 61.5978 115.362 62.1336C115.273 62.6396 115.213 63.1754 115.183 63.741V82.137C115.213 82.524 115.273 82.9408 115.362 83.3873C115.451 83.8338 115.704 84.2059 116.121 84.5035C116.567 84.8012 117.297 84.9351 118.309 84.9054H122.327C123.369 84.8756 124.158 84.7119 124.694 84.4142C125.259 84.0868 125.706 83.551 126.033 82.8068C126.361 82.0626 126.718 81.0357 127.105 79.7259C127.224 79.4282 127.417 79.2348 127.685 79.1455C127.983 79.0562 128.296 79.0413 128.623 79.1008C128.861 79.1306 129.099 79.2348 129.337 79.4134C129.605 79.592 129.724 79.8301 129.695 80.1278L128.802 85.7537C128.712 86.1705 128.564 86.4384 128.355 86.5575C128.177 86.6468 127.894 86.6914 127.507 86.6914H112.861C111.968 86.6914 111.09 86.6914 110.227 86.6914C109.394 86.7212 108.486 86.7658 107.503 86.8254ZM137.834 87.2272C136.018 87.2272 134.56 86.7063 133.458 85.6644C132.387 84.6226 131.851 83.3724 131.851 81.9138C131.851 80.3957 132.238 79.205 133.012 78.3417C133.815 77.4785 134.857 76.8385 136.137 76.4218C137.447 76.005 138.861 75.7222 140.379 75.5734C141.927 75.4246 143.43 75.3055 144.889 75.2162V71.6888C144.889 70.2898 144.532 69.2033 143.817 68.4293C143.132 67.6256 141.957 67.2237 140.29 67.2237C139.456 67.2237 138.667 67.4916 137.923 68.0275C137.209 68.5633 136.852 69.3372 136.852 70.3493C136.852 70.8256 136.971 71.2274 137.209 71.5549C137.447 71.8823 137.685 72.1353 137.923 72.3139C138.161 72.4925 138.28 72.6116 138.28 72.6711C138.28 72.7902 138.102 73.0134 137.745 73.3409C137.417 73.6385 136.956 73.7874 136.36 73.7874C135.438 73.7874 134.723 73.4451 134.217 72.7604C133.711 72.0758 133.458 71.3167 133.458 70.4832C133.458 69.3521 133.801 68.4591 134.485 67.8042C135.2 67.1493 136.107 66.6731 137.209 66.3754C138.31 66.0777 139.426 65.9289 140.558 65.9289C141.897 65.9289 143.192 66.0926 144.442 66.42C145.722 66.7475 146.764 67.3726 147.568 68.2954C148.401 69.2181 148.818 70.6023 148.818 72.4479V82.8515C148.848 83.1491 148.922 83.5063 149.041 83.9231C149.16 84.3398 149.384 84.7119 149.711 85.0393C150.068 85.337 150.544 85.4858 151.14 85.4858C151.348 85.4858 151.512 85.5305 151.631 85.6198C151.75 85.6793 151.81 85.8728 151.81 86.2002C151.81 86.4682 151.661 86.6765 151.363 86.8254C151.065 86.9742 150.723 87.0784 150.336 87.1379C149.949 87.1974 149.622 87.2272 149.354 87.2272C148.252 87.2272 147.27 86.9147 146.407 86.2896C145.544 85.6347 145.038 84.7417 144.889 83.6105C144.234 84.8012 143.252 85.7091 141.942 86.3342C140.662 86.9295 139.293 87.2272 137.834 87.2272ZM139.263 84.8161C140.275 84.8161 141.198 84.5631 142.031 84.057C142.894 83.551 143.579 82.8663 144.085 82.0031C144.621 81.1101 144.889 80.1278 144.889 79.0562V76.5111C141.823 76.7194 139.635 77.2106 138.325 77.9845C137.015 78.7585 136.36 80.0236 136.36 81.7798C136.36 83.804 137.328 84.8161 139.263 84.8161ZM163.328 96.4252C157.048 96.4252 153.907 94.6392 153.907 91.0672C153.907 90.0849 154.22 89.2067 154.845 88.4328C155.47 87.6886 156.303 87.3165 157.345 87.3165C158.03 87.3165 158.595 87.4951 159.042 87.8523C159.488 88.2393 159.712 88.5072 159.712 88.656C159.712 88.7156 159.593 88.8495 159.355 89.0579C159.146 89.2663 158.923 89.549 158.685 89.9062C158.476 90.2635 158.372 90.7397 158.372 91.3351C158.372 93.6271 160.337 94.7732 164.266 94.7732C166.499 94.7732 168.225 94.3862 169.446 93.6122C170.696 92.8383 171.321 91.6625 171.321 90.0849C171.321 89.2216 171.038 88.5667 170.473 88.1202C169.937 87.6737 169.207 87.3612 168.285 87.1826C167.392 87.004 166.394 86.8849 165.293 86.8254C164.192 86.7956 163.075 86.7658 161.944 86.7361C160.843 86.7063 159.816 86.617 158.863 86.4682C157.822 86.2896 156.943 85.9472 156.229 85.4412C155.544 84.9054 155.202 84.0421 155.202 82.8515C155.202 81.7501 155.589 80.7975 156.363 79.9938C157.167 79.1603 158.357 78.7436 159.935 78.7436C158.03 77.9994 156.75 77.0915 156.095 76.0199C155.47 74.9483 155.157 73.8469 155.157 72.7158C155.157 71.4358 155.515 70.2898 156.229 69.2777C156.973 68.2358 157.985 67.4172 159.265 66.8219C160.575 66.1968 162.078 65.8842 163.775 65.8842C164.608 65.8842 165.472 65.9586 166.365 66.1075C167.287 66.2265 168.076 66.4498 168.731 66.7772L174.848 65.6163C175.176 65.5866 175.399 65.6907 175.518 65.9289C175.637 66.167 175.697 66.42 175.697 66.6879C175.697 67.0749 175.637 67.4619 175.518 67.8489C175.399 68.2061 175.235 68.3847 175.027 68.3847L170.606 68.2061V68.2954C171.113 68.8014 171.544 69.4712 171.901 70.3046C172.259 71.1381 172.437 71.9269 172.437 72.6711C172.437 74.0999 172.02 75.3353 171.187 76.3771C170.383 77.419 169.341 78.2227 168.061 78.7882C166.811 79.3241 165.501 79.592 164.132 79.592H162.167C160.62 79.592 159.488 79.7408 158.774 80.0385C158.089 80.3361 157.747 80.8273 157.747 81.5119C157.747 82.0477 157.926 82.4645 158.283 82.7622C158.67 83.0301 159.355 83.1938 160.337 83.2533L166.454 83.4766C169.639 83.5956 171.901 84.1017 173.241 84.9947C174.61 85.8877 175.295 87.2123 175.295 88.9686C175.295 90.5462 174.789 91.8858 173.777 92.9871C172.794 94.1183 171.395 94.9667 169.579 95.5322C167.793 96.1276 165.71 96.4252 163.328 96.4252ZM163.775 78.2971C165.144 78.2971 166.26 77.8208 167.124 76.8683C167.987 75.886 168.419 74.4869 168.419 72.6711C168.419 71.0042 167.972 69.6944 167.079 68.7419C166.216 67.7596 165.1 67.2684 163.73 67.2684C162.421 67.2684 161.319 67.7447 160.426 68.6972C159.563 69.62 159.131 70.9149 159.131 72.5818C159.131 74.3976 159.563 75.8115 160.426 76.8236C161.319 77.8059 162.435 78.2971 163.775 78.2971ZM188.133 87.2272C186.05 87.2272 184.219 86.7361 182.641 85.7537C181.093 84.7714 179.888 83.4914 179.024 81.9138C178.161 80.3361 177.73 78.6543 177.73 76.8683C177.73 75.112 178.042 73.5492 178.667 72.18C179.292 70.8107 180.111 69.6646 181.123 68.7419C182.165 67.8191 183.296 67.1196 184.517 66.6433C185.737 66.167 186.943 65.9289 188.133 65.9289C190.217 65.9289 192.033 66.42 193.581 67.4023C195.158 68.3847 196.379 69.6646 197.242 71.2423C198.105 72.82 198.537 74.5018 198.537 76.2878C198.537 78.0441 198.209 79.6068 197.554 80.9761C196.929 82.3454 196.096 83.4914 195.054 84.4142C194.042 85.337 192.926 86.0365 191.705 86.5128C190.485 86.9891 189.294 87.2272 188.133 87.2272ZM188.133 85.5751C189.592 85.5751 190.738 85.1435 191.571 84.2803C192.435 83.417 193.045 82.2859 193.402 80.8868C193.789 79.458 193.982 77.925 193.982 76.2878C193.982 74.7102 193.789 73.2665 193.402 71.9567C193.015 70.647 192.39 69.5902 191.527 68.7865C190.663 67.9828 189.532 67.5809 188.133 67.5809C186.675 67.5809 185.514 68.0126 184.65 68.8758C183.787 69.7093 183.177 70.8256 182.82 72.2246C182.463 73.5939 182.284 75.112 182.284 76.779C182.284 78.3269 182.463 79.7706 182.82 81.1101C183.207 82.4496 183.832 83.5361 184.695 84.3696C185.558 85.1733 186.704 85.5751 188.133 85.5751ZM212.595 87.2272C210.511 87.2272 208.681 86.7361 207.103 85.7537C205.555 84.7714 204.35 83.4914 203.486 81.9138C202.623 80.3361 202.192 78.6543 202.192 76.8683C202.192 75.112 202.504 73.5492 203.129 72.18C203.754 70.8107 204.573 69.6646 205.585 68.7419C206.627 67.8191 207.758 67.1196 208.978 66.6433C210.199 66.167 211.404 65.9289 212.595 65.9289C214.679 65.9289 216.495 66.42 218.042 67.4023C219.62 68.3847 220.841 69.6646 221.704 71.2423C222.567 72.82 222.999 74.5018 222.999 76.2878C222.999 78.0441 222.671 79.6068 222.016 80.9761C221.391 82.3454 220.558 83.4914 219.516 84.4142C218.504 85.337 217.388 86.0365 216.167 86.5128C214.947 86.9891 213.756 87.2272 212.595 87.2272ZM212.595 85.5751C214.054 85.5751 215.2 85.1435 216.033 84.2803C216.896 83.417 217.507 82.2859 217.864 80.8868C218.251 79.458 218.444 77.925 218.444 76.2878C218.444 74.7102 218.251 73.2665 217.864 71.9567C217.477 70.647 216.852 69.5902 215.989 68.7865C215.125 67.9828 213.994 67.5809 212.595 67.5809C211.137 67.5809 209.976 68.0126 209.112 68.8758C208.249 69.7093 207.639 70.8256 207.282 72.2246C206.924 73.5939 206.746 75.112 206.746 76.779C206.746 78.3269 206.924 79.7706 207.282 81.1101C207.669 82.4496 208.294 83.5361 209.157 84.3696C210.02 85.1733 211.166 85.5751 212.595 85.5751ZM226.749 86.8254C226.541 86.8254 226.362 86.7361 226.213 86.5575C226.094 86.3491 226.035 86.1407 226.035 85.9323C226.094 85.4858 226.213 85.2477 226.392 85.2179C226.57 85.1584 226.809 85.1286 227.106 85.1286C227.94 85.1286 228.505 84.9947 228.803 84.7268C229.101 84.4291 229.264 84.0421 229.294 83.5659C229.354 83.0896 229.383 82.5984 229.383 82.0924V71.8674C229.383 71.3316 229.354 70.8404 229.294 70.3939C229.264 69.9177 229.101 69.5456 228.803 69.2777C228.505 68.98 227.94 68.8312 227.106 68.8312C226.838 68.8312 226.585 68.8014 226.347 68.7419C226.139 68.6526 226.035 68.3847 226.035 67.9382C226.035 67.4916 226.273 67.2237 226.749 67.1344C228.118 66.9261 229.16 66.7177 229.875 66.5093C230.619 66.301 231.169 66.1224 231.527 65.9735C231.914 65.8247 232.256 65.7354 232.554 65.7056C232.792 65.6759 232.985 65.7205 233.134 65.8396C233.313 65.9586 233.402 66.1968 233.402 66.554V69.367H233.536C234.131 68.8014 234.741 68.2656 235.367 67.7596C235.992 67.2237 236.721 66.7921 237.554 66.4647C238.418 66.1075 239.474 65.9289 240.725 65.9289C242.749 65.9289 244.356 66.5391 245.547 67.7596C246.738 68.98 247.333 70.5874 247.333 72.5818V82.0924C247.333 82.5984 247.348 83.0896 247.378 83.5659C247.437 84.0421 247.616 84.4291 247.913 84.7268C248.241 84.9947 248.821 85.1286 249.655 85.1286C249.923 85.1286 250.146 85.1584 250.325 85.2179C250.533 85.2477 250.652 85.4858 250.682 85.9323C250.682 86.1407 250.622 86.3491 250.503 86.5575C250.384 86.7361 250.205 86.8254 249.967 86.8254C249.104 86.7658 248.3 86.7212 247.556 86.6914C246.842 86.6914 246.083 86.6914 245.279 86.6914C244.475 86.6914 243.716 86.6914 243.002 86.6914C242.287 86.7212 241.499 86.7658 240.635 86.8254C240.427 86.8254 240.248 86.7361 240.1 86.5575C239.98 86.3491 239.921 86.1407 239.921 85.9323C239.951 85.4858 240.055 85.2477 240.233 85.2179C240.442 85.1584 240.68 85.1286 240.948 85.1286C241.781 85.1286 242.347 84.9947 242.645 84.7268C242.972 84.4291 243.151 84.0421 243.18 83.5659C243.24 83.0896 243.27 82.5984 243.27 82.0924V72.6265C243.27 71.6442 243.046 70.8404 242.6 70.2153C242.183 69.5902 241.647 69.1288 240.993 68.8312C240.338 68.5335 239.668 68.3847 238.983 68.3847C237.971 68.3847 237.078 68.5781 236.304 68.9651C235.53 69.3223 234.905 69.7391 234.429 70.2153C233.953 70.6916 233.625 71.1083 233.447 71.4656V82.0924C233.447 82.5984 233.461 83.0896 233.491 83.5659C233.551 84.0421 233.729 84.4291 234.027 84.7268C234.354 84.9947 234.935 85.1286 235.768 85.1286C236.036 85.1286 236.26 85.1584 236.438 85.2179C236.647 85.2477 236.766 85.4858 236.795 85.9323C236.795 86.1407 236.736 86.3491 236.617 86.5575C236.498 86.7361 236.319 86.8254 236.081 86.8254C235.218 86.7658 234.414 86.7212 233.67 86.6914C232.955 86.6914 232.196 86.6914 231.393 86.6914C230.589 86.6914 229.83 86.6914 229.115 86.6914C228.401 86.7212 227.612 86.7658 226.749 86.8254Z" fill="white"/>
<g clip-path="url(#clip0_285_219)">
<path d="M183.745 142.912C183.58 141.686 183.376 140.465 183.127 139.253C182.885 138.075 182.638 136.877 182.249 135.738C181.997 134.999 181.565 133.621 180.571 133.634C179.554 133.647 179.549 134.872 179.597 135.608C179.675 136.823 179.832 138.032 179.898 139.248C179.958 140.37 180.033 141.595 179.778 142.698C179.537 143.735 178.947 144.356 179.769 145.345C178.851 145.805 178.047 146.564 177.263 147.216C176.393 147.938 175.54 148.683 174.705 149.445C173.82 150.252 172.952 151.08 172.101 151.922C171.6 152.418 171.196 152.761 171.204 153.517C169.644 154.183 168.472 155.902 167.668 157.326C166.702 156.947 165.482 157.248 164.516 157.466C163.315 157.738 162.145 158.132 160.986 158.542C159.989 158.894 158.956 159.239 157.997 159.688C156.944 160.18 157.185 160.91 157.647 161.787C157.247 161.563 156.862 161.265 156.731 160.807C156.63 160.454 156.752 160.093 156.646 159.739C158.194 159.602 159.811 158.19 160.945 157.227C162.062 156.279 163.528 155.029 163.938 153.554C165.505 154.059 167.232 152.193 168.201 151.222C168.775 150.647 169.314 150.039 169.832 149.414C170.202 148.966 170.87 148.375 170.63 147.726C172.244 147.163 173.629 145.426 174.669 144.147C175.803 142.754 177.699 140.639 176.504 138.763C177.513 138.161 176.975 136.803 176.739 135.928C176.415 134.731 176.042 133.548 175.624 132.381C175.194 131.18 174.724 129.99 174.201 128.827C173.82 127.98 173.284 126.572 172.326 126.221C169.895 125.331 171.796 130.764 171.974 131.525C172.251 132.709 172.54 133.98 172.457 135.204C172.38 136.327 171.912 136.963 172.892 137.838C172.19 138.298 171.609 139.096 171.056 139.711C170.222 140.64 169.435 141.612 168.656 142.587C167.921 143.505 167.203 144.435 166.508 145.383C166.048 146.01 165.631 146.488 165.716 147.309C164.351 148.192 163.354 150.107 162.862 151.615C161.521 151.314 159.883 152.199 158.712 152.749C160.411 151.492 162.035 150.094 163.5 148.57C164.157 147.887 164.78 147.169 165.345 146.407C165.92 145.632 166.88 144.446 166.769 143.419C167.902 142.881 168.511 141.371 168.774 140.234C169.074 138.942 169.005 137.496 168.714 136.21C168.527 135.385 166.406 129.131 164.97 130.893C164.405 128.916 163.279 127.126 162.088 125.47C161.465 124.605 160.802 123.771 160.112 122.96C159.604 122.364 158.768 120.961 157.897 120.903C157.745 120.653 157.557 120.618 157.354 120.448C157.159 120.283 157.083 120.089 156.956 119.833C156.657 119.232 156.325 118.648 155.96 118.085C155.315 117.09 154.565 116.163 153.722 115.33C152.162 113.787 150.295 112.583 148.278 111.728C145.224 110.434 141.839 109.894 138.531 110.017C138.132 110.032 134.07 110.221 134.258 111.018C134.377 111.523 136.307 111.78 136.681 111.871C138.315 112.271 139.955 112.64 141.571 113.105C143.304 113.604 145.048 114.185 146.629 115.068C147.846 115.749 149.14 116.702 149.555 118.104C147.042 116.138 143.818 114.901 140.856 113.799C139.612 113.336 138.351 112.901 137.064 112.569C136.727 112.482 135.359 111.992 135.04 112.321C134.482 112.897 138.834 115.458 139.224 115.699C140.578 116.534 141.952 117.338 143.334 118.127C144.553 118.824 145.853 119.44 146.978 120.285C148.203 121.206 149.311 122.288 150.376 123.385C150.704 123.723 151.061 124.056 151.355 124.424C151.651 124.794 151.793 125.306 152.177 125.606C151.956 126.604 152.683 127.762 153.119 128.616C153.654 129.662 154.257 130.672 154.932 131.633C156.188 133.422 157.714 135.284 159.767 136.17C158.302 137.287 160.405 138.415 161.206 138.879C160.187 139.049 159.337 139.764 158.302 139.864C157.735 139.919 157.744 139.702 157.367 139.41C157.239 139.312 156.929 139.105 156.743 139.129C156.139 139.204 155.968 139.965 155.812 140.425C155.545 141.211 155.209 142.196 154.587 142.776C154.335 142.377 154.307 141.955 153.794 141.772C153.435 141.644 153.136 141.796 152.902 142.126C152.61 142.538 152.579 143.224 152.428 143.696C152.246 144.267 152.039 144.869 151.704 145.37C151.315 145.954 150.77 146.211 150.166 146.525C149.44 146.902 148.737 147.322 148.045 147.759C147.475 148.119 146.663 148.479 146.241 149.016C145.873 149.485 146.065 150 146.267 150.501C145.605 150.069 145.545 149.257 145.182 148.632C144.733 147.859 143.786 148.143 143.035 148.07C142.027 147.972 141.063 147.632 140.197 147.113C139.871 146.918 139.576 146.656 139.218 146.524C138.075 146.106 136.705 146.05 135.515 145.847C134.731 145.713 133.946 145.581 133.165 145.431C132.637 145.33 132.025 145.062 131.496 145.062C130.968 145.062 130.356 145.33 129.828 145.431C129.047 145.581 128.262 145.713 127.478 145.847C126.288 146.05 124.918 146.106 123.775 146.524C123.417 146.656 123.122 146.918 122.796 147.113C121.929 147.632 120.966 147.972 119.958 148.07C119.206 148.143 118.26 147.859 117.811 148.632C117.447 149.257 117.388 150.069 116.726 150.501C116.928 150 117.12 149.485 116.752 149.016C116.33 148.479 115.518 148.119 114.947 147.759C114.255 147.322 113.552 146.902 112.827 146.525C112.223 146.211 111.678 145.954 111.288 145.37C110.954 144.869 110.746 144.267 110.565 143.696C110.414 143.224 110.383 142.538 110.091 142.126C109.857 141.796 109.558 141.644 109.198 141.772C108.686 141.955 108.658 142.377 108.405 142.776C107.784 142.196 107.448 141.211 107.181 140.425C107.025 139.965 106.854 139.204 106.25 139.129C106.064 139.105 105.753 139.312 105.626 139.41C105.249 139.702 105.257 139.919 104.691 139.864C103.656 139.764 102.806 139.049 101.787 138.879C102.588 138.415 104.691 137.287 103.226 136.17C105.279 135.284 106.805 133.422 108.061 131.633C108.736 130.672 109.339 129.662 109.874 128.616C110.31 127.762 111.037 126.604 110.816 125.606C111.2 125.306 111.342 124.794 111.638 124.424C111.932 124.056 112.289 123.723 112.617 123.385C113.682 122.288 114.79 121.206 116.015 120.285C117.14 119.44 118.44 118.824 119.659 118.127C121.041 117.338 122.415 116.534 123.769 115.699C124.159 115.458 128.511 112.897 127.953 112.321C127.634 111.992 126.266 112.482 125.928 112.569C124.642 112.901 123.381 113.336 122.137 113.799C119.174 114.901 115.951 116.138 113.437 118.104C113.854 116.702 115.146 115.749 116.364 115.068C117.945 114.185 119.689 113.604 121.422 113.105C123.038 112.64 124.679 112.271 126.312 111.871C126.686 111.78 128.615 111.523 128.735 111.018C128.924 110.221 124.861 110.032 124.462 110.017C121.154 109.894 117.769 110.434 114.715 111.728C112.698 112.583 110.831 113.787 109.271 115.33C108.428 116.163 107.678 117.09 107.033 118.085C106.667 118.648 106.336 119.232 106.037 119.833C105.91 120.089 105.834 120.283 105.639 120.448C105.436 120.618 105.248 120.653 105.096 120.903C104.225 120.961 103.389 122.364 102.881 122.96C102.191 123.771 101.527 124.605 100.905 125.47C99.7138 127.126 98.5876 128.916 98.0228 130.893C96.5865 129.131 94.4656 135.385 94.2791 136.21C93.9881 137.496 93.9188 138.942 94.2186 140.234C94.4823 141.371 95.0909 142.881 96.2236 143.419C96.1132 144.446 97.0733 145.632 97.6483 146.407C98.2132 147.169 98.8358 147.887 99.4928 148.57C100.958 150.094 102.582 151.492 104.281 152.749C103.109 152.199 101.472 151.314 100.131 151.615C99.6393 150.107 98.6416 148.192 97.277 147.309C97.362 146.488 96.9451 146.01 96.4854 145.383C95.7904 144.435 95.0717 143.505 94.3375 142.587C93.5576 141.612 92.7711 140.64 91.9365 139.711C91.3842 139.096 90.8026 138.298 90.1005 137.838C91.0804 136.963 90.6131 136.327 90.5364 135.204C90.4528 133.98 90.7421 132.709 91.0189 131.525C91.1969 130.764 93.0976 125.331 90.6671 126.221C89.7086 126.572 89.1727 127.98 88.7921 128.827C88.2692 129.99 87.7988 131.18 87.369 132.381C86.9512 133.548 86.5778 134.731 86.2542 135.928C86.0175 136.803 85.4795 138.161 86.4893 138.763C85.2939 140.639 87.1898 142.754 88.3238 144.147C89.364 145.426 90.7493 147.163 92.3626 147.726C92.1232 148.375 92.7908 148.966 93.1612 149.414C93.6787 150.039 94.2182 150.647 94.7917 151.222C95.761 152.193 97.4883 154.059 99.0545 153.554C99.4646 155.029 100.93 156.279 102.048 157.227C103.182 158.19 104.799 159.602 106.346 159.739C106.241 160.093 106.363 160.454 106.262 160.807C106.131 161.265 105.746 161.563 105.346 161.787C105.808 160.91 106.049 160.18 104.996 159.688C104.037 159.239 103.004 158.894 102.007 158.542C100.847 158.132 99.6777 157.738 98.4767 157.466C97.5106 157.248 96.2915 156.947 95.3251 157.326C94.5209 155.902 93.3484 154.183 91.7885 153.517C91.7965 152.761 91.3926 152.418 90.8921 151.922C90.0405 151.08 89.1734 150.252 88.2882 149.445C87.4525 148.683 86.6003 147.938 85.7303 147.216C84.9456 146.564 84.1417 145.805 83.2237 145.345C84.0461 144.356 83.4556 143.735 83.2154 142.698C82.9599 141.595 83.035 140.37 83.0953 139.248C83.1606 138.032 83.3183 136.823 83.3965 135.608C83.4437 134.872 83.4387 133.647 82.4218 133.634C81.4281 133.621 80.9958 134.999 80.7436 135.738C80.3549 136.877 80.1076 138.075 79.8658 139.253C79.6168 140.465 79.413 141.686 79.2478 142.912C79.1268 143.81 78.9489 144.751 79.0139 145.663C79.0561 146.251 79.3443 146.672 79.7977 146.85C78.9989 148.779 80.8801 150.387 82.1459 151.554C83.4458 152.752 85.2459 154.412 87.0439 154.733C86.9212 155.388 87.6107 155.831 88.0321 156.203C88.7422 156.831 89.4746 157.435 90.2515 157.978C91.3241 158.729 93.2005 160.111 94.5911 159.404C95.1386 160.572 96.4254 161.457 97.4732 162.139C98.6619 162.912 99.9564 163.638 101.312 164.072C99.8139 164.364 98.312 164.635 96.8104 164.909C96.2 165.02 95.5418 165.063 94.9986 165.381C94.7505 165.527 94.519 165.712 94.2821 165.876C94.6193 166.192 94.9615 166.616 95.4195 166.745C96.2897 166.989 97.383 166.861 98.2834 166.918C100.397 167.053 102.506 167.256 104.604 167.547C106.557 167.819 108.522 168.132 110.424 168.663C112.128 169.138 113.883 169.752 115.021 171.184C114.379 171.184 113.712 170.616 113.089 170.362C112.096 169.956 111.083 169.597 110.054 169.293C107.943 168.668 105.826 168.293 103.62 168.349C101.413 168.406 99.2121 168.683 97.0353 169.043C96.0487 169.206 94.9994 169.316 94.0428 169.616C93.6461 169.74 93.3697 169.995 93.0425 170.248C93.1939 170.507 93.3304 170.83 93.5584 171.033C91.8563 171.003 90.1329 170.964 88.4428 171.194C86.9662 171.395 84.7237 171.826 84.4754 173.633C83.3107 173.021 82.2655 175.37 81.8738 176.135C81.2614 177.331 80.8467 178.66 80.8029 180.01C80.7562 181.447 81.1032 182.924 81.5896 184.268C81.8914 185.102 82.1977 185.442 82.9917 185.82C83.7644 184.535 83.8681 182.983 84.3764 181.574C85.0113 179.813 86.3048 177.981 85.8647 176.022C87.6788 176.977 90.0511 176.155 91.8108 175.461C92.7536 175.089 93.6676 174.643 94.538 174.124C95.1937 173.732 96.3153 173.209 96.7097 172.521C97.9923 173.621 99.8255 173.765 101.442 173.816C103.357 173.877 105.292 173.719 107.188 173.454C108.201 173.312 109.208 173.135 110.213 172.948C110.977 172.806 111.807 172.546 112.59 172.522C113.576 172.492 114.583 172.623 115.573 172.618C115.744 172.617 116.09 172.555 116.239 172.61C116.415 172.675 116.626 173.027 116.753 173.159C117.126 173.549 117.508 173.93 117.899 174.303C117.58 174.698 117.182 175.46 116.699 175.607C116.086 175.794 115.091 175.395 114.525 175.213C114.061 175.063 113.601 174.905 113.138 174.754C111.831 174.328 110.269 173.728 108.879 174.049C107.583 174.348 106.98 175.488 106.98 176.748C106.73 176.305 106.545 175.598 105.98 175.46C105.236 175.279 104.73 176.191 104.426 176.709C103.621 178.077 103.159 180.385 104.312 181.708C102.87 182.406 101.549 183.457 100.745 184.862C100.12 185.953 99.5847 187.54 100.149 188.763C99.412 189.208 99.6278 190.94 99.6463 191.631C99.6815 192.946 99.8653 194.27 100.281 195.521C101.032 197.785 102.77 199.808 105.284 199.985C108.009 200.176 108.846 197.652 108.944 195.357C109.005 193.937 108.885 192.515 108.676 191.111C108.533 190.147 108.525 189.16 107.748 188.51C108.414 187.247 109.111 185.981 109.616 184.643C110.033 183.538 110.49 182.015 109.766 180.932C110.065 180.445 109.753 180.003 109.406 179.661C110.436 179.357 111.46 179.169 112.509 179.465C113.755 179.817 115.164 180.022 116.399 179.507C117.324 179.121 118.024 178.346 118.33 177.392C118.447 177.027 118.397 176.478 118.595 176.193C118.753 175.964 119.1 175.774 119.317 175.595C120.109 176.286 120.912 177.023 121.753 177.652C122.573 178.264 123.687 178.232 124.658 178.333C126.92 178.569 129.218 178.985 131.496 178.979C133.775 178.985 136.073 178.569 138.335 178.333C139.306 178.232 140.42 178.264 141.24 177.652C142.081 177.023 142.884 176.286 143.676 175.595C143.892 175.774 144.24 175.964 144.398 176.193C144.595 176.478 144.545 177.027 144.663 177.392C144.969 178.346 145.669 179.121 146.594 179.507C147.829 180.022 149.238 179.817 150.483 179.465C151.533 179.169 152.557 179.357 153.587 179.661C153.24 180.003 152.928 180.445 153.227 180.932C152.502 182.015 152.96 183.538 153.377 184.643C153.882 185.981 154.578 187.247 155.245 188.51C154.468 189.16 154.46 190.147 154.316 191.111C154.108 192.515 153.987 193.937 154.048 195.357C154.147 197.652 154.984 200.176 157.709 199.985C160.223 199.808 161.961 197.785 162.712 195.521C163.128 194.27 163.311 192.946 163.347 191.631C163.365 190.94 163.581 189.208 162.844 188.763C163.408 187.54 162.873 185.953 162.248 184.862C161.443 183.457 160.123 182.406 158.681 181.708C159.834 180.385 159.372 178.077 158.567 176.709C158.263 176.191 157.757 175.279 157.013 175.46C156.448 175.598 156.263 176.305 156.013 176.748C156.013 175.488 155.41 174.348 154.114 174.049C152.724 173.728 151.162 174.328 149.856 174.754C149.392 174.905 148.932 175.063 148.468 175.213C147.902 175.395 146.907 175.794 146.294 175.607C145.81 175.46 145.413 174.698 145.094 174.303C145.484 173.93 145.867 173.549 146.24 173.159C146.367 173.027 146.578 172.675 146.754 172.61C146.903 172.555 147.249 172.617 147.42 172.618C148.41 172.623 149.417 172.492 150.403 172.522C151.186 172.546 152.016 172.806 152.78 172.948C153.785 173.135 154.792 173.312 155.805 173.454C157.701 173.719 159.635 173.877 161.551 173.816C163.167 173.765 165.001 173.621 166.283 172.521C166.678 173.209 167.799 173.732 168.455 174.124C169.325 174.643 170.239 175.089 171.182 175.461C172.942 176.155 175.314 176.977 177.128 176.022C176.688 177.981 177.982 179.813 178.616 181.574C179.125 182.983 179.229 184.535 180.001 185.82C180.795 185.442 181.101 185.102 181.403 184.268C181.89 182.924 182.237 181.447 182.19 180.01C182.146 178.66 181.731 177.331 181.119 176.135C180.727 175.37 179.682 173.021 178.517 173.633C178.269 171.826 176.027 171.395 174.55 171.194C172.86 170.964 171.137 171.003 169.434 171.033C169.662 170.83 169.799 170.507 169.95 170.248C169.623 169.995 169.347 169.74 168.95 169.616C167.993 169.316 166.944 169.206 165.958 169.043C163.781 168.683 161.58 168.406 159.373 168.349C157.167 168.293 155.049 168.668 152.939 169.293C151.91 169.597 150.897 169.956 149.904 170.362C149.281 170.616 148.614 171.184 147.971 171.184C149.11 169.752 150.865 169.138 152.569 168.663C154.471 168.132 156.436 167.819 158.389 167.547C160.487 167.256 162.596 167.053 164.71 166.918C165.61 166.861 166.703 166.989 167.574 166.745C168.031 166.616 168.374 166.192 168.711 165.876C168.474 165.712 168.242 165.527 167.994 165.381C167.451 165.063 166.793 165.02 166.182 164.909C164.681 164.635 163.179 164.364 161.681 164.072C163.037 163.638 164.331 162.912 165.52 162.139C166.568 161.457 167.854 160.572 168.402 159.404C169.792 160.111 171.669 158.729 172.741 157.978C173.518 157.435 174.251 156.831 174.961 156.203C175.382 155.831 176.072 155.388 175.949 154.733C177.747 154.412 179.547 152.752 180.847 151.554C182.113 150.387 183.994 148.779 183.195 146.85C183.649 146.672 183.937 146.251 183.979 145.663C184.044 144.751 183.866 143.81 183.745 142.912Z" fill="white"/>
</g>
<defs>
<clipPath id="clip0_285_219">
<rect width="105" height="90" fill="white" transform="translate(79 110)"/>
</clipPath>
</defs>
</svg>
